<?xml version="1.0" encoding="UTF-8" standalone="no"?>
<svg xmlns="http://www.w3.org/2000/svg" xmlns:xlink="http://www.w3.org/1999/xlink" width="800" height="600" viewBox="0 0 800 600">
  <!-- Background rectangle -->
  <rect width="800" height="600" fill="white"/>
  
  <!-- Title -->
  <text x="400" y="60" font-family="Arial, sans-serif" font-size="24" font-weight="bold" text-anchor="middle" fill="black">General Microwave F9114</text>
  <text x="400" y="90" font-family="Arial, sans-serif" font-size="18" text-anchor="middle" fill="#444">PIN Diode Attenuator/Switch</text>
  
  <!-- Device outline -->
  <rect x="200" y="150" width="400" height="250" rx="5" ry="5" fill="#f2f2f2" stroke="black" stroke-width="2"/>
  
  <!-- Connectors -->
  <circle cx="150" cy="275" r="12" fill="white" stroke="black" stroke-width="1.5"/>
  <circle cx="650" cy="275" r="12" fill="white" stroke="black" stroke-width="1.5"/>
  <line x1="162" y1="275" x2="200" y2="275" stroke="black" stroke-width="1.5"/>
  <line x1="600" y1="275" x2="638" y2="275" stroke="black" stroke-width="1.5"/>
  
  <!-- Control line -->
  <line x1="400" y1="400" x2="400" y2="450" stroke="black" stroke-width="1.5"/>
  <circle cx="400" cy="470" r="8" fill="white" stroke="black" stroke-width="1.5"/>
  
  <!-- Component labels -->
  <text x="150" y="310" font-family="Arial, sans-serif" font-size="14" text-anchor="middle" fill="black">RF IN</text>
  <text x="650" y="310" font-family="Arial, sans-serif" font-size="14" text-anchor="middle" fill="black">RF OUT</text>
  <text x="400" y="500" font-family="Arial, sans-serif" font-size="14" text-anchor="middle" fill="black">CONTROL</text>
  
  <!-- Internal circuitry representation - simpler zigzag line -->
  <path d="M 250 275 L 300 275 L 350 235 L 400 275 L 450 315 L 500 275 L 550 275" fill="none" stroke="black" stroke-width="2"/>
  <circle cx="350" cy="235" r="4" fill="black"/>
  <circle cx="450" cy="315" r="4" fill="black"/>
  
  <!-- Specifications -->
  <text x="400" y="540" font-family="Arial, sans-serif" font-size="16" font-weight="bold" text-anchor="middle" fill="black">Specifications</text>
  <text x="280" y="570" font-family="Arial, sans-serif" font-size="14" text-anchor="start" fill="black">• Frequency Range: 2-18 GHz</text>
  <text x="480" y="570" font-family="Arial, sans-serif" font-size="14" text-anchor="start" fill="black">• Attenuation Range: 0-60 dB</text>
</svg> 