<?xml version="1.0" encoding="UTF-8" standalone="no"?>
<svg xmlns="http://www.w3.org/2000/svg" width="600" height="400" viewBox="0 0 600 400">
  <!-- White background -->
  <rect width="600" height="400" fill="white"/>
  
  <!-- Axes -->
  <line x1="50" y1="350" x2="550" y2="350" stroke="black" stroke-width="2"/>
  <line x1="50" y1="350" x2="50" y2="50" stroke="black" stroke-width="2"/>
  
  <!-- X-axis labels -->
  <text x="50" y="380" font-family="Arial" font-size="14" text-anchor="middle">9.995</text>
  <text x="300" y="380" font-family="Arial" font-size="14" text-anchor="middle">10.000</text>
  <text x="550" y="380" font-family="Arial" font-size="14" text-anchor="middle">10.005</text>
  <text x="300" y="395" font-family="Arial" font-size="16" text-anchor="middle">Frequency (GHz)</text>
  
  <!-- Y-axis labels -->
  <text x="40" y="350" font-family="Arial" font-size="14" text-anchor="end">0.0</text>
  <text x="40" y="200" font-family="Arial" font-size="14" text-anchor="end">0.5</text>
  <text x="40" y="50" font-family="Arial" font-size="14" text-anchor="end">1.0</text>
  
  <!-- Y-axis label -->
  <text x="20" y="200" font-family="Arial" font-size="16" text-anchor="middle" transform="rotate(-90 20 200)">Normalized response</text>
  
  <!-- Resonance curve -->
  <path d="M 50,350 
           Q 100,350 150,340 
           Q 200,330 250,300
           Q 275,270 300,200
           L 300,200
           Q 325,130 350,100
           Q 400,70 450,60
           Q 500,50 550,50
           L 550,50
           Q 525,60 500,80
           Q 450,110 400,170
           Q 375,200 350,250
           L 350,250
           Q 325,300 300,315
           Q 275,330 250,340
           Q 200,350 150,350
           Q 100,350 50,350"
        fill="none" stroke="red" stroke-width="2"/>
  
  <!-- Bandwidth marker -->
  <line x1="275" y1="200" x2="325" y2="200" stroke="black" stroke-width="2"/>
  <line x1="275" y1="195" x2="275" y2="205" stroke="black" stroke-width="2"/>
  <line x1="325" y1="195" x2="325" y2="205" stroke="black" stroke-width="2"/>
  
  <!-- Gamma label -->
  <text x="300" y="190" font-family="Arial" font-size="18" text-anchor="middle">Γ</text>
</svg> 