<?xml version="1.0" encoding="UTF-8"?>
<!-- Created with Inkscape (http://www.inkscape.org/) -->
<svg width="99.448" height="300" version="1.1" viewBox="0 0 99.448 300" xml:space="preserve" xmlns="http://www.w3.org/2000/svg" xmlns:xlink="http://www.w3.org/1999/xlink"><defs><linearGradient id="linearGradient11661" x1="14.062" x2="21.062" y1="-4.875" y2="-4.875" gradientTransform="matrix(7.5923 0 0 7.5923 -164.85 174.51)" gradientUnits="userSpaceOnUse" xlink:href="#linearGradient11659"/><linearGradient id="linearGradient11659"><stop stop-color="#959595" offset=".05"/><stop stop-color="#b4b4b4" offset=".25"/><stop stop-color="#7e7e7e" offset=".5"/><stop stop-color="#919191" offset=".75"/><stop stop-color="#b2b2b2" offset=".95"/></linearGradient><linearGradient id="linearGradient10403" x1="12.562" x2="22.562" y1="2.375" y2="2.375" gradientTransform="matrix(7.5923 0 0 7.5923 -164.85 174.51)" gradientUnits="userSpaceOnUse" xlink:href="#linearGradient11659"/><linearGradient id="linearGradient11675" x1="21" x2="24" y1="-4.625" y2="-4.625" gradientTransform="matrix(7.5923 0 0 7.5923 -164.85 174.51)" gradientUnits="userSpaceOnUse"><stop stop-color="#959595" offset=".05"/><stop stop-color="#b4b4b4" offset=".25"/><stop stop-color="#7e7e7e" offset=".5"/><stop stop-color="#919191" offset=".75"/><stop stop-color="#b2b2b2" offset=".95"/></linearGradient><linearGradient id="linearGradient11706" x1="15.562" x2="19.562" y1="-10.125" y2="-10.125" gradientTransform="matrix(7.5923 0 0 7.5923 -164.85 174.51)" gradientUnits="userSpaceOnUse" xlink:href="#linearGradient11659"/><linearGradient id="linearGradient12498" x1="12.562" x2="22.562" y1="-11.375" y2="-11.375" gradientTransform="matrix(10.629 0 0 7.5923 -218.18 174.51)" gradientUnits="userSpaceOnUse" xlink:href="#linearGradient11659"/><linearGradient id="linearGradient12519" x1="3" x2="33" y1="40.375" y2="40.375" gradientTransform="matrix(7.5923 0 0 7.5923 -162.71 178.3)" gradientUnits="userSpaceOnUse"><stop stop-color="#644896" offset=".05"/><stop stop-color="#8e68cc" offset=".25"/><stop stop-color="#734f96" offset=".5"/><stop stop-color="#732a96" offset=".75"/><stop stop-color="#731e96" offset=".95"/></linearGradient><linearGradient id="linearGradient15522" x1="5.6497" x2="30.547" y1="48.21" y2="48.21" gradientTransform="matrix(7.5923 0 2.4788e-8 7.5923 -162.35 178.66)" gradientUnits="userSpaceOnUse"><stop stop-color="#8c8c8c" offset="0"/><stop stop-color="#a0a0a0" offset=".2027"/><stop stop-color="#8c8c8c" offset=".60135"/><stop stop-color="#787878" offset="1"/></linearGradient></defs><g id="lecture" transform="matrix(.43662 0 0 .43662 61.737 -36.561)"><g><rect x="-58.082" y="101.43" width="53.146" height="72.126" fill="url(#linearGradient11661)" stroke-width=".32506"/><rect x="-69.47" y="173.56" width="75.923" height="37.961" fill="url(#linearGradient10403)" stroke-width=".19592"/><rect x="-69.47" y="183.75" width="75.923" height=".75923" ry="0" fill="#a0a0a0" stroke-width=".083359"/><rect x="-5.4111" y="120.41" width="22.777" height="37.961" fill="url(#linearGradient11675)" stroke-width=".28455"/><rect x="-46.694" y="93.838" width="30.369" height="7.5923" fill="url(#linearGradient11706)" stroke-width=".60454"/><rect x="-84.655" y="82.451" width="106.29" height="11.388" ry="3.7961" fill="url(#linearGradient12498)" stroke-width=".39837"/><path d="m87.831 313.33a113.88 113.2 0 0 0-113.88-113.2 113.88 113.2 0 0 0-113.88 113.2 113.88 113.2 0 0 0 0.13342 1.8442c-0.0367 0.43494-0.13342 0.8537-0.13342 1.2985v437.97c0 8.3703 6.7723 15.109 15.184 15.109h197.4c8.4121 0 15.184-6.7386 15.184-15.109v-437.97c0-0.20613-0.05003-0.39975-0.06004-0.60488a113.88 113.2 0 0 0 0.06004-2.5378z" fill="url(#linearGradient12519)" stroke-width=".38749"/><rect transform="matrix(1 .0022173 -.0020421 1 0 0)" x="-119.45" y="348.43" width="189.03" height="392.5" ry="5.6071" fill="url(#linearGradient15522)" stroke-width="7.1093"/></g><text id="molecule-value" transform="rotate(90)" x="545.29565" y="34.356789" display="none" dominant-baseline="central" fill="#000000" font-family="sans-serif" font-size="97.721px" stroke-linecap="square" stroke-linejoin="round" stroke-width="34.355" text-align="center" text-anchor="middle" style="line-height:0;paint-order:fill markers stroke" xml:space="preserve"><tspan x="0" y="0" font-size="97.721px" stroke-width="34.355">props.molecule</tspan></text></g></svg>
