<?xml version="1.0" encoding="UTF-8" standalone="no"?>
<svg
   version="1.1"
   width="600"
   height="600"
   id="schematic-window"
   sodipodi:docname="Nozzle.svg"
   xml:space="preserve"
   inkscape:version="1.4 (86a8ad7, 2024-10-11)"
   xmlns:inkscape="http://www.inkscape.org/namespaces/inkscape"
   xmlns:sodipodi="http://sodipodi.sourceforge.net/DTD/sodipodi-0.dtd"
   xmlns:xlink="http://www.w3.org/1999/xlink"
   xmlns="http://www.w3.org/2000/svg"
   xmlns:svg="http://www.w3.org/2000/svg"><defs
     id="defs361"><inkscape:path-effect
       effect="fillet_chamfer"
       id="path-effect5"
       is_visible="true"
       lpeversion="1"
       nodesatellites_param="F,0,0,1,0,0,0,1 @ F,0,0,1,0,0,0,1 @ F,0,0,1,0,0,0,1 @ F,0,0,1,0,0,0,1 @ F,0,0,1,0,0,0,1 @ F,0,0,1,0,0,0,1 @ F,0,0,1,0,0,0,1 @ F,0,0,1,0,0,0,1 @ F,0,0,1,0,0,0,1 @ F,0,0,1,0,0,0,1 @ F,0,0,1,0,0,0,1 @ F,0,0,1,0,0,0,1 @ F,0,0,1,0,0,0,1 @ F,0,0,1,0,0,0,1 | F,0,0,1,0,0,0,1 @ F,0,0,1,0,0,0,1 @ F,0,0,1,0,0,0,1 @ F,0,0,1,0,0,0,1 @ F,0,0,1,0,0,0,1 @ F,0,0,1,0,0,0,1 @ F,0,0,1,0,0,0,1 @ F,0,0,1,0,0,0,1 @ F,0,0,1,0,0,0,1 @ F,0,0,1,0,0,0,1 @ F,0,0,1,0,0,0,1 @ F,0,0,1,0,0,0,1 | F,0,0,1,0,0,0,1 @ F,0,0,1,0,0,0,1 @ F,0,0,1,0,0,0,1 @ F,0,0,1,0,0,0,1 @ F,0,0,1,0,0,0,1 @ F,0,0,1,0,0,0,1 @ F,0,0,1,0,0,0,1 @ F,0,0,1,0,0,0,1 | F,0,0,1,0,0,0,1 @ F,0,0,1,0,0,0,1 @ F,0,0,1,0,0,0,1 | F,0,0,1,0,0,0,1 @ F,0,0,1,0,0,0,1 @ F,0,0,1,0,0,0,1 @ F,0,0,1,0,0,0,1 @ F,0,0,1,0,0,0,1 @ F,0,0,1,0,0,0,1 @ F,0,0,1,0,0,0,1 @ F,0,0,1,0,0,0,1 @ F,0,0,1,0,0,0,1 @ F,0,0,1,0,0,0,1 @ F,0,0,1,0,0,0,1 @ F,0,0,1,0,0,0,1 @ F,0,0,1,0,0,0,1 @ F,0,0,1,0,0,0,1 | F,0,0,1,0,0,0,1 @ F,0,0,1,0,0,0,1 @ F,0,0,1,0,0,0,1 @ F,0,0,1,0,0,0,1 @ F,0,0,1,0,0,0,1 @ F,0,0,1,0,0,0,1 @ F,0,0,1,0,0,0,1 @ F,0,0,1,0,0,0,1 @ F,0,0,1,0,0,0,1 @ F,0,0,1,0,0,0,1 @ F,0,0,1,0,0,0,1 @ F,0,0,1,0,0,0,1 | F,0,0,1,0,0,0,1 @ F,0,0,1,0,0,0,1 @ F,0,0,1,0,0,0,1 @ F,0,0,1,0,0,0,1 @ F,0,0,1,0,0,0,1 @ F,0,0,1,0,0,0,1 @ F,0,0,1,0,0,0,1 @ F,0,0,1,0,0,0,1 @ F,0,0,1,0,0,0,1 @ F,0,0,1,0,0,0,1 @ F,0,0,1,0,0,0,1 @ F,0,0,1,0,0,0,1 | F,0,0,1,0,0,0,1 @ F,0,0,1,0,0,0,1 @ F,0,0,1,0,0,0,1 @ F,0,0,1,0,0,0,1 @ F,0,0,1,0,0,0,1 @ F,0,0,1,0,0,0,1 @ F,0,0,1,0,0,0,1 @ F,0,0,1,0,0,0,1 @ F,0,0,1,0,0,0,1 @ F,0,0,1,0,0,0,1 @ F,0,0,1,0,0,0,1 @ F,0,0,1,0,0,0,1 | F,0,0,1,0,0,0,1 @ F,0,0,1,0,0,0,1 @ F,0,0,1,0,0,0,1 @ F,0,0,1,0,0,0,1 @ F,0,0,1,0,0,0,1 @ F,0,0,1,0,0,0,1 @ F,0,0,1,0,0,0,1 @ F,0,0,1,0,0,0,1 @ F,0,0,1,0,0,0,1 @ F,0,0,1,0,0,0,1 @ F,0,0,1,0,0,0,1 @ F,0,0,1,0,0,0,1 @ F,0,0,1,0,0,0,1 @ F,0,0,1,0,0,0,1 | F,0,0,1,0,0,0,1 @ F,0,0,1,0,0,0,1 @ F,0,0,1,0,0,0,1 @ F,0,0,1,0,0,0,1 @ F,0,0,1,0,0,0,1 @ F,0,0,1,0,0,0,1 @ F,0,0,1,0,0,0,1 @ F,0,0,1,0,0,0,1 @ F,0,0,1,0,0,0,1 @ F,0,0,1,0,0,0,1 @ F,0,0,1,0,0,0,1 @ F,0,0,1,0,0,0,1"
       radius="0"
       unit="px"
       method="auto"
       mode="F"
       chamfer_steps="1"
       flexible="false"
       use_knot_distance="true"
       apply_no_radius="true"
       apply_with_radius="true"
       only_selected="false"
       hide_knots="false" /><inkscape:path-effect
       effect="fillet_chamfer"
       id="path-effect4"
       is_visible="true"
       lpeversion="1"
       nodesatellites_param="F,0,0,1,0,0,0,1 @ F,0,0,1,0,0,0,1 @ F,0,0,1,0,0,0,1 @ F,0,0,1,0,0,0,1 @ F,0,0,1,0,0,0,1 @ F,0,0,1,0,0,0,1 @ F,0,0,1,0,0,0,1 @ F,0,0,1,0,0,0,1 @ F,0,0,1,0,0,0,1 @ F,0,0,1,0,0,0,1 @ F,0,0,1,0,0,0,1 @ F,0,0,1,0,0,0,1 @ F,0,0,1,0,0,0,1 @ F,0,0,1,0,0,0,1 | F,0,0,1,0,0,0,1 @ F,0,0,1,0,0,0,1 @ F,0,0,1,0,0,0,1 @ F,0,0,1,0,0,0,1 @ F,0,0,1,0,0,0,1 @ F,0,0,1,0,0,0,1 @ F,0,0,1,0,0,0,1 @ F,0,0,1,0,0,0,1 @ F,0,0,1,0,0,0,1 @ F,0,0,1,0,0,0,1 @ F,0,0,1,0,0,0,1 @ F,0,0,1,0,0,0,1 | F,0,0,1,0,0,0,1 @ F,0,0,1,0,0,0,1 @ F,0,0,1,0,0,0,1 @ F,0,0,1,0,0,0,1 @ F,0,0,1,0,0,0,1 @ F,0,0,1,0,0,0,1 @ F,0,0,1,0,0,0,1 @ F,0,0,1,0,0,0,1 | F,0,0,1,0,0,0,1 @ F,0,0,1,0,0,0,1 @ F,0,0,1,0,0,0,1 | F,0,0,1,0,0,0,1 @ F,0,0,1,0,0,0,1 @ F,0,0,1,0,0,0,1 @ F,0,0,1,0,0,0,1 @ F,0,0,1,0,0,0,1 @ F,0,0,1,0,0,0,1 @ F,0,0,1,0,0,0,1 @ F,0,0,1,0,0,0,1 @ F,0,0,1,0,0,0,1 @ F,0,0,1,0,0,0,1 @ F,0,0,1,0,0,0,1 @ F,0,0,1,0,0,0,1 @ F,0,0,1,0,0,0,1 @ F,0,0,1,0,0,0,1 | F,0,0,1,0,0,0,1 @ F,0,0,1,0,0,0,1 @ F,0,0,1,0,0,0,1 @ F,0,0,1,0,0,0,1 @ F,0,0,1,0,0,0,1 @ F,0,0,1,0,0,0,1 @ F,0,0,1,0,0,0,1 @ F,0,0,1,0,0,0,1 @ F,0,0,1,0,0,0,1 @ F,0,0,1,0,0,0,1 @ F,0,0,1,0,0,0,1 @ F,0,0,1,0,0,0,1 | F,0,0,1,0,0,0,1 @ F,0,0,1,0,0,0,1 @ F,0,0,1,0,0,0,1 @ F,0,0,1,0,0,0,1 @ F,0,0,1,0,0,0,1 @ F,0,0,1,0,0,0,1 @ F,0,0,1,0,0,0,1 @ F,0,0,1,0,0,0,1 @ F,0,0,1,0,0,0,1 @ F,0,0,1,0,0,0,1 @ F,0,0,1,0,0,0,1 @ F,0,0,1,0,0,0,1 | F,0,0,1,0,0,0,1 @ F,0,0,1,0,0,0,1 @ F,0,0,1,0,0,0,1 @ F,0,0,1,0,0,0,1 @ F,0,0,1,0,0,0,1 @ F,0,0,1,0,0,0,1 @ F,0,0,1,0,0,0,1 @ F,0,0,1,0,0,0,1 @ F,0,0,1,0,0,0,1 @ F,0,0,1,0,0,0,1 @ F,0,0,1,0,0,0,1 @ F,0,0,1,0,0,0,1 | F,0,0,1,0,0,0,1 @ F,0,0,1,0,0,0,1 @ F,0,0,1,0,0,0,1 @ F,0,0,1,0,0,0,1 @ F,0,0,1,0,0,0,1 @ F,0,0,1,0,0,0,1 @ F,0,0,1,0,0,0,1 @ F,0,0,1,0,0,0,1 @ F,0,0,1,0,0,0,1 @ F,0,0,1,0,0,0,1 @ F,0,0,1,0,0,0,1 @ F,0,0,1,0,0,0,1 @ F,0,0,1,0,0,0,1 @ F,0,0,1,0,0,0,1 | F,0,0,1,0,0,0,1 @ F,0,0,1,0,0,0,1 @ F,0,0,1,0,0,0,1 @ F,0,0,1,0,0,0,1 @ F,0,0,1,0,0,0,1 @ F,0,0,1,0,0,0,1 @ F,0,0,1,0,0,0,1 @ F,0,0,1,0,0,0,1 @ F,0,0,1,0,0,0,1 @ F,0,0,1,0,0,0,1 @ F,0,0,1,0,0,0,1 @ F,0,0,1,0,0,0,1"
       radius="0"
       unit="px"
       method="auto"
       mode="F"
       chamfer_steps="1"
       flexible="false"
       use_knot_distance="true"
       apply_no_radius="true"
       apply_with_radius="true"
       only_selected="false"
       hide_knots="false" /><inkscape:path-effect
       effect="fillet_chamfer"
       id="path-effect718"
       is_visible="true"
       lpeversion="1"
       nodesatellites_param="F,0,0,1,0,0,0,1 @ F,0,0,1,0,0,0,1 @ F,0,0,1,0,0,0,1 @ F,0,0,1,0,0,0,1 @ F,0,0,1,0,0.64120642,0,1 @ F,0,0,1,0,0.64120642,0,1 @ F,0,0,1,0,0,0,1 @ F,0,0,1,0,0,0,1 @ F,0,0,1,0,0,0,1"
       radius="0"
       unit="px"
       method="auto"
       mode="F"
       chamfer_steps="1"
       flexible="false"
       use_knot_distance="true"
       apply_no_radius="true"
       apply_with_radius="true"
       only_selected="false"
       hide_knots="false" /><inkscape:path-effect
       effect="spiro"
       id="path-effect717"
       is_visible="true"
       lpeversion="1" /><inkscape:path-effect
       effect="spiro"
       id="path-effect716"
       is_visible="true"
       lpeversion="1" /><inkscape:path-effect
       effect="fillet_chamfer"
       id="path-effect714"
       is_visible="true"
       lpeversion="1"
       nodesatellites_param="F,0,0,1,0,0,0,1 @ F,0,0,1,0,0,0,1 @ F,0,0,1,0,0,0,1 @ F,0,0,1,0,0,0,1"
       radius="0"
       unit="px"
       method="auto"
       mode="F"
       chamfer_steps="1"
       flexible="false"
       use_knot_distance="true"
       apply_no_radius="true"
       apply_with_radius="true"
       only_selected="false"
       hide_knots="false" /><inkscape:path-effect
       effect="fillet_chamfer"
       id="path-effect713"
       is_visible="true"
       lpeversion="1"
       nodesatellites_param="F,0,0,1,0,0,0,1 @ F,0,0,1,0,0,0,1 @ F,0,0,1,0,0,0,1 @ F,0,0,1,0,0,0,1"
       radius="0"
       unit="px"
       method="auto"
       mode="F"
       chamfer_steps="1"
       flexible="false"
       use_knot_distance="true"
       apply_no_radius="true"
       apply_with_radius="true"
       only_selected="false"
       hide_knots="false" /><inkscape:path-effect
       effect="fillet_chamfer"
       id="path-effect712"
       is_visible="true"
       lpeversion="1"
       nodesatellites_param="F,0,0,1,0,18.643523,0,1 @ F,0,0,1,0,18.643523,0,1 @ F,0,0,1,0,18.643523,0,1 @ F,0,0,1,0,18.643523,0,1"
       radius="0"
       unit="px"
       method="auto"
       mode="F"
       chamfer_steps="1"
       flexible="false"
       use_knot_distance="true"
       apply_no_radius="true"
       apply_with_radius="true"
       only_selected="false"
       hide_knots="false" /><inkscape:path-effect
       effect="spiro"
       id="path-effect711"
       is_visible="true"
       lpeversion="1" /><linearGradient
       id="linearGradient706"
       inkscape:collect="always"><stop
         style="stop-color:#939393;stop-opacity:1;"
         offset="0"
         id="stop707" /><stop
         style="stop-color:#afafaf;stop-opacity:1;"
         offset="0.5"
         id="stop709" /><stop
         style="stop-color:#aeaeae;stop-opacity:1;"
         offset="0.75"
         id="stop710" /><stop
         style="stop-color:#aaaaaa;stop-opacity:1;"
         offset="0.875"
         id="stop711" /><stop
         style="stop-color:#d5d5d5;stop-opacity:1;"
         offset="1"
         id="stop708" /></linearGradient><linearGradient
       id="linearGradient701"
       inkscape:collect="always"><stop
         style="stop-color:#acacac;stop-opacity:1;"
         offset="0"
         id="stop702" /><stop
         style="stop-color:#b2b2b2;stop-opacity:1;"
         offset="0.5"
         id="stop704" /><stop
         style="stop-color:#aaaaaa;stop-opacity:1;"
         offset="0.75"
         id="stop705" /><stop
         style="stop-color:#b7b7b7;stop-opacity:1;"
         offset="0.875"
         id="stop706" /><stop
         style="stop-color:#9d9d9d;stop-opacity:1;"
         offset="1"
         id="stop703" /></linearGradient><linearGradient
       id="linearGradient696"
       inkscape:collect="always"><stop
         style="stop-color:#7d7d7d;stop-opacity:1;"
         offset="0"
         id="stop697" /><stop
         style="stop-color:#adadad;stop-opacity:1;"
         offset="0.5"
         id="stop699" /><stop
         style="stop-color:#b2b2b2;stop-opacity:1;"
         offset="0.75"
         id="stop700" /><stop
         style="stop-color:#a6a6a6;stop-opacity:1;"
         offset="0.875"
         id="stop701" /><stop
         style="stop-color:#7c7c7c;stop-opacity:1;"
         offset="1"
         id="stop698" /></linearGradient><linearGradient
       id="linearGradient691"
       inkscape:collect="always"><stop
         style="stop-color:#5d5d5d;stop-opacity:1;"
         offset="0"
         id="stop692" /><stop
         style="stop-color:#c3c3c3;stop-opacity:1;"
         offset="0.5"
         id="stop694" /><stop
         style="stop-color:#797979;stop-opacity:1;"
         offset="0.75"
         id="stop695" /><stop
         style="stop-color:#cbcbcb;stop-opacity:1;"
         offset="0.875"
         id="stop696" /><stop
         style="stop-color:#4c4c4c;stop-opacity:1;"
         offset="1"
         id="stop693" /></linearGradient><linearGradient
       id="linearGradient686"
       inkscape:collect="always"><stop
         style="stop-color:#848484;stop-opacity:1;"
         offset="0"
         id="stop687" /><stop
         style="stop-color:#cfcfcf;stop-opacity:1;"
         offset="0.5"
         id="stop689" /><stop
         style="stop-color:#adadad;stop-opacity:1;"
         offset="0.75"
         id="stop690" /><stop
         style="stop-color:#acacac;stop-opacity:1;"
         offset="0.875"
         id="stop691" /><stop
         style="stop-color:#818181;stop-opacity:1;"
         offset="1"
         id="stop688" /></linearGradient><linearGradient
       id="linearGradient679"
       inkscape:collect="always"><stop
         style="stop-color:#e0e0e0;stop-opacity:1;"
         offset="0"
         id="stop680" /><stop
         style="stop-color:#dddddd;stop-opacity:1;"
         offset="0.5"
         id="stop682" /><stop
         style="stop-color:#dadada;stop-opacity:1;"
         offset="1"
         id="stop681" /></linearGradient><linearGradient
       id="linearGradient674"
       inkscape:collect="always"><stop
         style="stop-color:#939393;stop-opacity:1;"
         offset="0"
         id="stop675" /><stop
         style="stop-color:#c9c9c9;stop-opacity:1;"
         offset="0.5"
         id="stop677" /><stop
         style="stop-color:#bcbcbc;stop-opacity:1;"
         offset="0.75"
         id="stop678" /><stop
         style="stop-color:#ababab;stop-opacity:1;"
         offset="0.875"
         id="stop679" /><stop
         style="stop-color:#929292;stop-opacity:1;"
         offset="1"
         id="stop676" /></linearGradient><linearGradient
       id="linearGradient670"
       inkscape:collect="always"><stop
         style="stop-color:#a2a2a2;stop-opacity:1;"
         offset="0"
         id="stop670" /><stop
         style="stop-color:#e9e9e9;stop-opacity:1;"
         offset="0.5"
         id="stop672" /><stop
         style="stop-color:#bdbdbd;stop-opacity:1;"
         offset="0.75"
         id="stop673" /><stop
         style="stop-color:#e2e2e2;stop-opacity:1;"
         offset="0.875"
         id="stop674" /><stop
         style="stop-color:#a8a8a8;stop-opacity:1;"
         offset="1"
         id="stop671" /></linearGradient><linearGradient
       id="linearGradient643"
       inkscape:collect="always"><stop
         style="stop-color:#9f9f9f;stop-opacity:1;"
         offset="0"
         id="stop644" /><stop
         style="stop-color:#cccccc;stop-opacity:1;"
         offset="0.5"
         id="stop646" /><stop
         style="stop-color:#9c9c9c;stop-opacity:1;"
         offset="0.75"
         id="stop647" /><stop
         style="stop-color:#a7a7a7;stop-opacity:1;"
         offset="0.875"
         id="stop648" /><stop
         style="stop-color:#9e9e9e;stop-opacity:1;"
         offset="1"
         id="stop645" /></linearGradient><linearGradient
       id="linearGradient639"
       inkscape:collect="always"><stop
         style="stop-color:#8d8d8d;stop-opacity:1;"
         offset="0"
         id="stop639" /><stop
         style="stop-color:#c4c4c4;stop-opacity:1;"
         offset="0.5"
         id="stop641" /><stop
         style="stop-color:#929292;stop-opacity:1;"
         offset="0.75"
         id="stop642" /><stop
         style="stop-color:#959595;stop-opacity:1;"
         offset="0.875"
         id="stop643" /><stop
         style="stop-color:#969696;stop-opacity:1;"
         offset="1"
         id="stop640" /></linearGradient><linearGradient
       id="linearGradient632"
       inkscape:collect="always"><stop
         style="stop-color:#5b5b5b;stop-opacity:1;"
         offset="0"
         id="stop632" /><stop
         style="stop-color:#bbbbbb;stop-opacity:1;"
         offset="0.5"
         id="stop634" /><stop
         style="stop-color:#939393;stop-opacity:1;"
         offset="0.75"
         id="stop635" /><stop
         style="stop-color:#aeaeae;stop-opacity:1;"
         offset="0.875"
         id="stop636" /><stop
         style="stop-color:#9b9b9b;stop-opacity:1;"
         offset="1"
         id="stop633" /></linearGradient><inkscape:path-effect
       effect="fillet_chamfer"
       id="path-effect631"
       is_visible="true"
       lpeversion="1"
       nodesatellites_param="F,0,0,1,0,0,0,1 @ F,0,0,1,0,0,0,1 @ F,0,0,1,0,0,0,1"
       radius="0"
       unit="px"
       method="auto"
       mode="F"
       chamfer_steps="1"
       flexible="false"
       use_knot_distance="true"
       apply_no_radius="true"
       apply_with_radius="true"
       only_selected="false"
       hide_knots="false" /><inkscape:path-effect
       effect="fillet_chamfer"
       id="path-effect630"
       is_visible="true"
       lpeversion="1"
       nodesatellites_param="F,0,0,1,0,0,0,1 @ F,0,0,1,0,0,0,1 @ F,0,0,1,0,0,0,1"
       radius="0"
       unit="px"
       method="auto"
       mode="F"
       chamfer_steps="1"
       flexible="false"
       use_knot_distance="true"
       apply_no_radius="true"
       apply_with_radius="true"
       only_selected="false"
       hide_knots="false" /><inkscape:path-effect
       effect="fillet_chamfer"
       id="path-effect489"
       is_visible="true"
       lpeversion="1"
       nodesatellites_param="F,0,0,1,0,0,0,1 @ F,0,0,1,0,0,0,1 @ F,0,0,1,0,0,0,1 @ F,0,0,1,0,0,0,1"
       radius="0"
       unit="px"
       method="auto"
       mode="F"
       chamfer_steps="1"
       flexible="false"
       use_knot_distance="true"
       apply_no_radius="true"
       apply_with_radius="true"
       only_selected="false"
       hide_knots="false" /><clipPath
       clipPathUnits="userSpaceOnUse"
       id="clipPath619"><path
         id="path620"
         style="fill:#ff0000;fill-opacity:1;fill-rule:nonzero;stroke:none;stroke-width:1.00732"
         d="m 181.77418,103.8735 v 243.16449 c 0.0526,-0.13644 0.11114,-0.27094 0.16602,-0.40627 0.43955,-1.0842 0.79575,-1.47435 1.10742,-1.4289 0.41069,0.0599 0.74358,0.89195 1.08008,1.87679 0.58456,0.0784 1.17323,0.37405 1.69531,0.88984 0.53762,-2.60494 1.14966,-5.19084 2.12696,-7.67959 1.45745,-3.95103 2.8728,-8.08516 5.01757,-11.72252 1.23828,-2.10004 2.10741,-4.61198 4.01758,-6.10601 4.85216,-3.7951 9.85868,-10.72585 15.85156,-9.43549 0.58727,0.12644 1.16215,0.28586 1.73243,0.45384 2.14201,-2.09024 4.39573,-4.13002 6.76367,-5.86423 1.37189,-1.00474 2.87764,-1.80602 4.3164,-2.70917 5.24038,-3.28928 8.82818,-4.70215 11.18165,-4.70089 4.1124,0.002 4.4021,4.39058 3.20507,10.57107 3.95351,-3.23168 8.59966,-4.78523 13.30664,-4.53839 11.75449,0.61641 23.79488,12.2301 25.81055,35.58771 0.005,0.0521 0.0169,0.10251 0.0215,0.15458 0.17872,-0.0584 0.36177,-0.1053 0.54492,-0.14665 0.47337,-0.10689 1.00525,-0.16035 1.48828,-0.17242 0.25883,-0.006 0.51652,0.009 0.77539,0.0139 1.0582,0.089 2.14648,0.29555 3.04883,0.90371 0.73788,0.49733 0.78769,0.66905 1.33593,1.35954 0.14599,0.2845 0.32194,0.55365 0.4375,0.85219 0.60801,1.57056 0.35969,3.31449 0.24415,4.95061 -0.0788,1.1641 -0.10703,2.34044 0.0976,3.49396 0.1097,0.61497 0.20628,0.87243 0.38672,1.46655 0.0979,0.28283 0.20102,0.56539 0.31055,0.84426 0.4049,0.27246 0.80691,0.55954 1.22656,0.76499 0.0302,0.17344 0.0679,0.34453 0.0898,0.51924 0.0949,0.75637 0.0519,1.59344 -0.28125,2.27117 0.0177,0.17093 0.0189,0.18666 0.0742,0.52915 0.37871,2.34574 -0.72338,3.62438 -1.92187,3.63071 0.073,0.38583 0.13248,0.77426 0.20898,1.15937 0.0827,0.28207 0.16579,0.56403 0.24805,0.84624 0.70446,2.38022 1.36045,4.80002 2.41992,7.04937 0.9944,2.11119 0.39419,3.69019 -0.67773,4.1242 0.68857,1.33349 1.44367,2.62928 2.36328,3.82492 0.33544,0.43612 0.71595,0.84084 1.13476,1.19504 0.12893,0.10903 0.40961,0.32545 0.47461,0.16846 0.0829,-0.20019 -0.20388,-0.38226 -0.30664,-0.57275 -1.61923,-1.57632 0.37252,-0.75062 1.64453,-0.49942 0.84093,0.16608 1.67973,0.34338 2.51953,0.51527 4.51632,0.846 8.8036,2.5517 13.07813,4.1995 3.72324,1.43528 6.94515,3.09004 9.82226,4.86935 0.22024,-0.0701 0.43973,-0.14169 0.65625,-0.21998 0.84411,-0.28076 1.70194,-0.54495 2.52735,-0.87993 0.56985,-0.23128 0.85613,-0.39307 1.4082,-0.7095 0.007,-0.004 0.0129,-0.008 0.0195,-0.0119 -0.002,-0.0647 -0.007,-0.12928 -0.006,-0.19421 0.0123,-0.79356 0.89728,-1.14056 1.75586,-1.46656 0.0387,-0.0352 0.0877,-0.0803 0.12305,-0.11297 0.63377,-0.5852 1.26149,-1.18205 1.82227,-1.84112 0.18516,-0.23996 0.37735,-0.47336 0.55468,-0.7194 0.89179,-1.23712 1.57887,-2.61072 2.27149,-3.96762 0.42469,-0.85268 0.8302,-1.71618 1.29883,-2.54467 v -0.002 c 0.47927,-0.84731 0.84377,-1.22363 1.13085,-1.27432 0.8965,-0.15825 1.05903,2.81931 1.64063,4.58596 1.42112,-1.17108 2.84583,-2.35087 4.20703,-3.57919 0.13643,-0.12311 0.27237,-0.23204 0.4082,-0.34285 -0.15536,-1.00524 -0.2778,-2.01574 -0.46289,-3.01635 -0.60387,-3.26465 0.84719,-5.06522 2.51172,-5.1151 0.94099,-0.0282 1.92103,0.57172 2.66602,1.71428 0.59939,-1.20823 1.53338,-1.82877 2.46875,-1.87877 0.33313,-0.018 0.66639,0.0396 0.98437,0.16449 0.4999,-1.03209 1.30582,-1.64033 2.19727,-1.6905 0.39415,-0.0222 0.79797,0.061 1.1875,0.24575 -0.0355,-0.24539 -0.0368,-0.49463 -0.0801,-0.73924 -0.57874,-3.26921 0.89264,-5.05509 2.56055,-5.08734 1.45529,-0.0281 3.05805,1.28093 3.58203,4.1004 0.21228,-2.60887 1.56452,-3.97951 2.98633,-3.97951 0.0862,0 0.17182,0.006 0.25781,0.0158 0.002,-0.0958 0.002,-0.19159 0.006,-0.28737 0.007,-0.18593 0.0174,-0.37104 0.0254,-0.55689 0.005,-0.1523 0.004,-0.30544 0.004,-0.45781 4e-5,-0.17479 -2e-4,-0.34841 0,-0.5232 10e-4,-0.16853 0,-0.33682 0.002,-0.50537 4.5e-4,-0.0711 0.003,-0.14257 0.004,-0.21403 -0.0943,-0.15214 -0.14694,-0.36537 -0.10742,-0.65599 0.004,-0.0293 0.008,-0.0599 0.0117,-0.0892 0.0286,-0.20669 0.0541,-0.41327 0.0801,-0.62031 0.0297,-0.22958 0.0463,-0.46104 0.0664,-0.69166 0.0164,-0.22059 0.0308,-0.44093 0.0312,-0.66193 -0.27645,-0.12746 -0.52826,-0.39279 -0.58399,-0.95921 -0.0151,-0.15337 -0.0319,-0.3066 -0.0488,-0.45978 -0.005,-0.0364 -0.0114,-0.073 -0.0156,-0.109 -0.029,-0.0231 -0.0589,-0.048 -0.0859,-0.0713 -0.13315,-0.12559 -0.2266,-0.28775 -0.31641,-0.44591 -0.0806,-0.14465 -0.16337,-0.28608 -0.23437,-0.436 -0.0576,-0.12529 -0.10926,-0.25218 -0.16016,-0.38052 -0.0178,-0.0405 -0.0365,-0.0815 -0.0566,-0.12089 -0.0181,-0.0355 -0.0405,-0.0685 -0.0566,-0.10503 -0.005,-0.0119 0.0145,0.0209 0.0215,0.0317 0.70738,1.07726 0.57888,-1.14459 0.9707,-1.18317 0.0813,-0.008 0.18604,0.078 0.32422,0.3072 0.0199,0.0331 0.0341,0.0693 0.0527,0.10305 0.079,-0.0978 0.18209,-0.15169 0.29297,-0.1526 0.11671,-10e-4 0.23919,0.0729 0.35547,0.1962 h 0.002 c 0.27509,0 0.55078,0.27575 0.55078,0.82841 v 0.36862 0.49149 c -0.003,0.11937 0.004,0.23946 0.01,0.35871 0.006,0.11876 0.008,0.23782 0.01,0.35673 0.002,0.0422 0.009,0.0845 0.0117,0.12684 0.006,0.0525 0.0164,0.10402 0.0215,0.15656 0.0161,0.18125 0.0223,0.3633 0.0293,0.545 2.5e-4,0.007 -2.3e-4,0.0145 0,0.0218 0.003,0.0451 0.009,0.0897 0.0117,0.13476 0.008,0.14726 0.0126,0.2945 0.0156,0.44195 0.004,0.13325 10e-4,0.26723 -0.006,0.40033 -0.004,0.12634 -0.009,0.25268 -0.0215,0.37853 -0.0112,0.10533 -0.0194,0.21125 -0.0254,0.31709 -0.005,0.0876 -0.007,0.17403 -0.0117,0.2616 -0.006,0.0832 -0.0107,0.16629 -0.0137,0.24971 -0.003,0.077 -0.007,0.15487 -0.008,0.23188 -6.9e-4,0.085 1.2e-4,0.17062 0,0.25565 -3e-4,0.12086 -0.01,0.23987 -0.0137,0.3607 -0.004,0.14641 -0.007,0.29348 -0.008,0.43996 -0.001,0.16598 -0.002,0.33151 -0.002,0.49743 -1.8e-4,0.17447 9e-5,0.34886 0,0.52321 9.9e-4,0.16511 0.002,0.3304 -0.004,0.49546 -0.008,0.18698 -0.0184,0.37382 -0.0254,0.56086 -0.006,0.17245 -0.01,0.34467 -0.0117,0.51726 -10e-4,0.0428 -0.003,0.0858 -0.004,0.12881 0.98587,0.64081 1.75602,2.02698 1.80078,4.15986 0.0206,0.0516 0.0415,0.10303 0.0625,0.15459 0.0578,0.13847 0.11231,0.27852 0.16211,0.42014 0.0281,0.077 0.0512,0.15512 0.0742,0.23386 0.15751,0.53985 -0.0407,0.8786 -0.3125,0.9493 -0.0261,1.03769 -0.0767,2.07497 -0.13281,3.11147 -0.13173,2.83516 -0.47666,5.65312 -0.91406,8.45448 -0.24968,1.63125 -0.6683,3.22229 -1.24414,4.76432 -0.31032,0.78515 -0.73665,1.50886 -1.22657,2.18992 -1.17331,1.63106 -2.49359,2.24926 -3.64062,2.27316 -0.19297,1.01485 -0.39637,2.02748 -0.60156,3.04012 -0.5616,2.7715 -2.11241,3.96012 -3.53321,3.9379 -0.67848,1.05513 -1.63863,1.53116 -2.55859,1.45862 -0.47301,2.97635 -2.50674,4.00516 -4.10547,3.2284 -0.004,0.002 -0.008,0.004 -0.0117,0.006 -0.71608,0.4138 -1.53734,0.60368 -2.31445,0.88191 -2.60004,0.9309 -5.23998,1.74919 -7.875,2.57044 -0.45591,0.12444 -0.88063,0.24956 -1.28906,0.36267 1.63515,3.06962 2.6467,6.18558 2.91406,9.21947 h 85.2832 v -309.538 z m 11.59375,229.79705 c -0.0357,-0.0373 -0.33176,0.76064 -0.33789,1.06821 -0.003,0.16644 10e-4,0.33298 -0.002,0.49942 0.13396,-0.49409 0.25436,-0.9906 0.33789,-1.49628 0.007,-0.0433 0.007,-0.0659 0.002,-0.0713 z m 88,10.39073 c -4.9e-4,-0.007 -0.0196,0.006 -0.0176,0.0119 0.006,0.0182 0.0147,0.0355 0.0215,0.0535 -0.002,-0.0218 -0.002,-0.0436 -0.004,-0.0654 z m 7.00586,12.62425 c 0.003,0.005 0.006,0.0105 0.01,0.0158 0.0194,0.0311 0.0927,0.11468 0.0703,0.0852 -0.0263,-0.0341 -0.0535,-0.0671 -0.0801,-0.10107 z m -58.79296,25.39318 c -1.18844,2.04315 -2.58329,3.76862 -4.11329,5.23599 0.77921,0.0979 1.55848,0.19557 2.33789,0.29133 0.49867,0.0613 0.94724,0.16153 1.35547,0.28935 0.008,-0.20932 0.0138,-0.39807 0.0254,-0.64608 0.081,-1.72757 0.225,-3.45059 0.39454,-5.17059 z m -47.80665,0.33295 v 30.99977 h 60.125 c -0.1372,-0.12738 -0.22352,-0.34716 -0.3457,-0.50537 -0.4559,-0.0724 -0.91105,-0.14774 -1.36523,-0.23385 -1.07959,0.72358 -2.07165,0.78871 -3.56446,0.42411 -0.91498,-0.22348 -1.92531,-1.24044 -2.61523,-1.95012 -1.02754,-0.30752 -2.05144,-0.62841 -3.07813,-0.93939 -0.25952,-0.0856 -0.51426,-0.1866 -0.77343,-0.27349 -0.80178,0.6669 -2.07187,1.08405 -3.79492,0.96713 -0.40867,-0.0277 -0.81685,-0.044 -1.22461,-0.0832 -0.88728,-0.0852 -1.97067,-0.25824 -2.8418,-0.38646 -1.46207,-0.27061 -1.92225,-0.32851 -3.37109,-0.70751 -2.11717,-0.55385 -4.16862,-1.33432 -6.16016,-2.24542 -1.12158,-0.54166 -2.24198,-1.07923 -3.30859,-1.72815 -0.50297,-0.306 -0.91422,-0.58091 -1.35743,-0.97308 -0.14295,-0.12646 -0.26614,-0.27628 -0.39843,-0.4142 -0.48155,-0.50202 -0.83591,-1.00717 -1.08399,-1.50223 -2.01497,-0.25479 -4.0183,-0.59145 -5.99219,-1.10982 -1.04247,-0.32039 -1.73394,-0.51433 -2.46484,-0.77885 0.57333,1.90975 -1.07504,4.09766 -4.75977,3.69412 -0.33645,-0.0369 -0.67314,-0.0581 -1.00781,-0.109 -1.16012,-0.17613 -2.29893,-0.49593 -3.38476,-0.94534 -1.02928,-0.50934 -1.38439,-0.61695 -2.29493,-1.3397 -1.31529,-1.0441 -2.25953,-2.44564 -2.83007,-4.02907 -0.10126,-0.35841 -0.21734,-0.71152 -0.30274,-1.07415 -0.1517,-0.64404 -0.21887,-1.22805 -0.29687,-1.88076 -0.12596,-1.05455 -0.21789,-2.11287 -0.33008,-3.16894 -0.32846,-3.24345 -0.73685,-6.47747 -1.17774,-9.707 z m 7.17383,7.23764 c 0.0666,0.60757 0.13363,1.21505 0.19532,1.82328 0.11055,1.03057 0.19856,2.06256 0.32226,3.09165 0.0583,0.48505 0.10057,0.92881 0.22266,1.39918 0.0398,0.15325 0.10194,0.29987 0.15234,0.44987 0.40116,0.84758 0.95698,1.13043 1.78125,1.46656 0.60779,0.2296 1.24959,0.31949 1.89063,0.39834 -0.62175,-0.55061 -1.19413,-1.16045 -1.70508,-1.83319 -0.23262,-0.33283 -0.47867,-0.65636 -0.69727,-0.99884 -0.87827,-1.37596 -1.4743,-2.90022 -1.86328,-4.48686 -0.10429,-0.4356 -0.20099,-0.87293 -0.29883,-1.30999 z m 64.5,22.86238 c -0.71631,0.23314 -1.44972,0.41621 -2.18945,0.54698 -0.55046,0.0973 -1.1086,0.15634 -1.66211,0.23386 -1.28097,0.10415 -2.55501,0.11624 -3.82422,0.0595 -0.0168,0.0174 -0.0297,0.0418 -0.0469,0.0595 h 8.47851 c -0.17593,-0.20473 -0.29063,-0.31484 -0.47851,-0.53708 -0.0986,-0.11663 -0.17976,-0.24533 -0.27735,-0.36267 z" /></clipPath><linearGradient
       inkscape:collect="always"
       xlink:href="#linearGradient632"
       id="linearGradient633"
       x1="191.26842"
       y1="462.10922"
       x2="221.04453"
       y2="462.10922"
       gradientUnits="userSpaceOnUse"
       gradientTransform="translate(16.930726,-75.690303)" /><linearGradient
       inkscape:collect="always"
       xlink:href="#linearGradient632"
       id="linearGradient636"
       gradientUnits="userSpaceOnUse"
       gradientTransform="translate(45.746452,-32.945566)"
       x1="191.26842"
       y1="462.10922"
       x2="221.04453"
       y2="462.10922" /><linearGradient
       inkscape:collect="always"
       xlink:href="#linearGradient632"
       id="linearGradient637"
       gradientUnits="userSpaceOnUse"
       gradientTransform="translate(163.6297,-41.854768)"
       x1="191.26842"
       y1="462.10922"
       x2="221.04453"
       y2="462.10922" /><linearGradient
       inkscape:collect="always"
       xlink:href="#linearGradient632"
       id="linearGradient638"
       gradientUnits="userSpaceOnUse"
       gradientTransform="translate(138.20916,-88.866993)"
       x1="191.26842"
       y1="462.10922"
       x2="221.04453"
       y2="462.10922" /><linearGradient
       inkscape:collect="always"
       xlink:href="#linearGradient639"
       id="linearGradient640"
       x1="167.3544"
       y1="481.41656"
       x2="395.42123"
       y2="481.41656"
       gradientUnits="userSpaceOnUse"
       gradientTransform="translate(19.918501,-75.690303)" /><linearGradient
       inkscape:collect="always"
       xlink:href="#linearGradient643"
       id="linearGradient645"
       x1="166.2598"
       y1="491.26559"
       x2="394.32663"
       y2="491.26559"
       gradientUnits="userSpaceOnUse"
       gradientTransform="translate(20.914426,-76.686228)" /><linearGradient
       inkscape:collect="always"
       xlink:href="#linearGradient670"
       id="linearGradient671"
       x1="229.20932"
       y1="396.38602"
       x2="330.79367"
       y2="396.38602"
       gradientUnits="userSpaceOnUse"
       gradientTransform="translate(19.918501,-75.690303)" /><linearGradient
       inkscape:collect="always"
       xlink:href="#linearGradient674"
       id="linearGradient676"
       x1="228.87323"
       y1="321.47888"
       x2="331.69013"
       y2="321.47888"
       gradientUnits="userSpaceOnUse"
       gradientTransform="translate(19.918501,-75.690303)" /><linearGradient
       inkscape:collect="always"
       xlink:href="#linearGradient679"
       id="linearGradient681"
       x1="229.17581"
       y1="385.09674"
       x2="330.76016"
       y2="385.09674"
       gradientUnits="userSpaceOnUse"
       gradientTransform="translate(19.918501,-75.690303)" /><linearGradient
       inkscape:collect="always"
       xlink:href="#linearGradient686"
       id="linearGradient688"
       x1="252.81693"
       y1="296.47887"
       x2="306.33805"
       y2="296.47887"
       gradientUnits="userSpaceOnUse"
       gradientTransform="matrix(1.2503406,0,0,0.7616579,-49.719012,2.3674567)" /><linearGradient
       inkscape:collect="always"
       xlink:href="#linearGradient691"
       id="linearGradient693"
       x1="246.83094"
       y1="266.45852"
       x2="313.38024"
       y2="266.45852"
       gradientUnits="userSpaceOnUse"
       gradientTransform="matrix(1.2116402,0,0,1,-39.891277,-52.450866)" /><linearGradient
       inkscape:collect="always"
       xlink:href="#linearGradient696"
       id="linearGradient698"
       x1="229.72331"
       y1="240.5784"
       x2="330.71925"
       y2="240.5784"
       gradientUnits="userSpaceOnUse"
       gradientTransform="translate(19.918501,-75.690303)" /><linearGradient
       inkscape:collect="always"
       xlink:href="#linearGradient701"
       id="linearGradient703"
       x1="230.35107"
       y1="205.69318"
       x2="330.47693"
       y2="205.69318"
       gradientUnits="userSpaceOnUse"
       gradientTransform="translate(19.918501,-75.690303)" /><linearGradient
       inkscape:collect="always"
       xlink:href="#linearGradient706"
       id="linearGradient708"
       x1="252.81795"
       y1="204.3329"
       x2="307.49175"
       y2="204.3329"
       gradientUnits="userSpaceOnUse"
       gradientTransform="translate(19.918501,-75.690303)" /><inkscape:path-effect
       effect="fillet_chamfer"
       id="path-effect5-4"
       is_visible="true"
       lpeversion="1"
       nodesatellites_param="F,0,0,1,0,0,0,1 @ F,0,0,1,0,0,0,1 @ F,0,0,1,0,0,0,1 @ F,0,0,1,0,0,0,1 @ F,0,0,1,0,0,0,1 @ F,0,0,1,0,0,0,1 @ F,0,0,1,0,0,0,1 @ F,0,0,1,0,0,0,1 @ F,0,0,1,0,0,0,1 @ F,0,0,1,0,0,0,1 @ F,0,0,1,0,0,0,1 @ F,0,0,1,0,0,0,1 @ F,0,0,1,0,0,0,1 @ F,0,0,1,0,0,0,1 | F,0,0,1,0,0,0,1 @ F,0,0,1,0,0,0,1 @ F,0,0,1,0,0,0,1 @ F,0,0,1,0,0,0,1 @ F,0,0,1,0,0,0,1 @ F,0,0,1,0,0,0,1 @ F,0,0,1,0,0,0,1 @ F,0,0,1,0,0,0,1 @ F,0,0,1,0,0,0,1 @ F,0,0,1,0,0,0,1 @ F,0,0,1,0,0,0,1 @ F,0,0,1,0,0,0,1 | F,0,0,1,0,0,0,1 @ F,0,0,1,0,0,0,1 @ F,0,0,1,0,0,0,1 @ F,0,0,1,0,0,0,1 @ F,0,0,1,0,0,0,1 @ F,0,0,1,0,0,0,1 @ F,0,0,1,0,0,0,1 @ F,0,0,1,0,0,0,1 | F,0,0,1,0,0,0,1 @ F,0,0,1,0,0,0,1 @ F,0,0,1,0,0,0,1 | F,0,0,1,0,0,0,1 @ F,0,0,1,0,0,0,1 @ F,0,0,1,0,0,0,1 @ F,0,0,1,0,0,0,1 @ F,0,0,1,0,0,0,1 @ F,0,0,1,0,0,0,1 @ F,0,0,1,0,0,0,1 @ F,0,0,1,0,0,0,1 @ F,0,0,1,0,0,0,1 @ F,0,0,1,0,0,0,1 @ F,0,0,1,0,0,0,1 @ F,0,0,1,0,0,0,1 @ F,0,0,1,0,0,0,1 @ F,0,0,1,0,0,0,1 | F,0,0,1,0,0,0,1 @ F,0,0,1,0,0,0,1 @ F,0,0,1,0,0,0,1 @ F,0,0,1,0,0,0,1 @ F,0,0,1,0,0,0,1 @ F,0,0,1,0,0,0,1 @ F,0,0,1,0,0,0,1 @ F,0,0,1,0,0,0,1 @ F,0,0,1,0,0,0,1 @ F,0,0,1,0,0,0,1 @ F,0,0,1,0,0,0,1 @ F,0,0,1,0,0,0,1 | F,0,0,1,0,0,0,1 @ F,0,0,1,0,0,0,1 @ F,0,0,1,0,0,0,1 @ F,0,0,1,0,0,0,1 @ F,0,0,1,0,0,0,1 @ F,0,0,1,0,0,0,1 @ F,0,0,1,0,0,0,1 @ F,0,0,1,0,0,0,1 @ F,0,0,1,0,0,0,1 @ F,0,0,1,0,0,0,1 @ F,0,0,1,0,0,0,1 @ F,0,0,1,0,0,0,1 | F,0,0,1,0,0,0,1 @ F,0,0,1,0,0,0,1 @ F,0,0,1,0,0,0,1 @ F,0,0,1,0,0,0,1 @ F,0,0,1,0,0,0,1 @ F,0,0,1,0,0,0,1 @ F,0,0,1,0,0,0,1 @ F,0,0,1,0,0,0,1 @ F,0,0,1,0,0,0,1 @ F,0,0,1,0,0,0,1 @ F,0,0,1,0,0,0,1 @ F,0,0,1,0,0,0,1 | F,0,0,1,0,0,0,1 @ F,0,0,1,0,0,0,1 @ F,0,0,1,0,0,0,1 @ F,0,0,1,0,0,0,1 @ F,0,0,1,0,0,0,1 @ F,0,0,1,0,0,0,1 @ F,0,0,1,0,0,0,1 @ F,0,0,1,0,0,0,1 @ F,0,0,1,0,0,0,1 @ F,0,0,1,0,0,0,1 @ F,0,0,1,0,0,0,1 @ F,0,0,1,0,0,0,1 @ F,0,0,1,0,0,0,1 @ F,0,0,1,0,0,0,1 | F,0,0,1,0,0,0,1 @ F,0,0,1,0,0,0,1 @ F,0,0,1,0,0,0,1 @ F,0,0,1,0,0,0,1 @ F,0,0,1,0,0,0,1 @ F,0,0,1,0,0,0,1 @ F,0,0,1,0,0,0,1 @ F,0,0,1,0,0,0,1 @ F,0,0,1,0,0,0,1 @ F,0,0,1,0,0,0,1 @ F,0,0,1,0,0,0,1 @ F,0,0,1,0,0,0,1"
       radius="0"
       unit="px"
       method="auto"
       mode="F"
       chamfer_steps="1"
       flexible="false"
       use_knot_distance="true"
       apply_no_radius="true"
       apply_with_radius="true"
       only_selected="false"
       hide_knots="false" /></defs><sodipodi:namedview
     id="namedview361"
     pagecolor="#ffffff"
     bordercolor="#999999"
     borderopacity="1"
     inkscape:showpageshadow="2"
     inkscape:pageopacity="0"
     inkscape:pagecheckerboard="0"
     inkscape:deskcolor="#d1d1d1"
     showgrid="false"
     inkscape:zoom="0.71"
     inkscape:cx="-51.408451"
     inkscape:cy="88.732394"
     inkscape:window-width="1920"
     inkscape:window-height="1057"
     inkscape:window-x="-8"
     inkscape:window-y="-8"
     inkscape:window-maximized="1"
     inkscape:current-layer="g728" /><g
     id="g721"><path
       style="fill:url(#linearGradient645);fill-opacity:1;fill-rule:evenodd;stroke-width:17.7693"
       id="path481"
       sodipodi:type="arc"
       sodipodi:cx="301.20761"
       sodipodi:cy="414.57938"
       sodipodi:rx="114.03342"
       sodipodi:ry="54.021606"
       sodipodi:start="6.0402725"
       sodipodi:end="6.0369505"
       sodipodi:open="true"
       sodipodi:arc-type="arc"
       d="m 411.89317,401.58551 a 114.03342,54.021606 0 0 1 -83.16508,65.41867 114.03342,54.021606 0 0 1 -138.16033,-39.34386 114.03342,54.021606 0 0 1 82.9356,-65.48402 114.03342,54.021606 0 0 1 138.29809,39.23509" /><path
       style="fill:url(#linearGradient640);fill-opacity:1;fill-rule:evenodd;stroke-width:16.4523"
       id="path481-8"
       sodipodi:type="arc"
       sodipodi:cx="301.3063"
       sodipodi:cy="405.72626"
       sodipodi:rx="114.03342"
       sodipodi:ry="46.310516"
       sodipodi:start="6.0402725"
       sodipodi:end="6.0369505"
       sodipodi:open="true"
       sodipodi:arc-type="arc"
       d="m 411.99187,394.58715 a 114.03342,46.310516 0 0 1 -83.16509,56.08075 114.03342,46.310516 0 0 1 -138.16033,-33.72788 114.03342,46.310516 0 0 1 82.9356,-56.13678 114.03342,46.310516 0 0 1 138.29809,33.63464" /></g><g
     id="g722"><path
       style="fill:url(#linearGradient638);fill-opacity:1;fill-rule:evenodd;stroke:none;stroke-width:1.61422;stroke-dasharray:none;stroke-opacity:1"
       id="path625-2"
       sodipodi:type="arc"
       sodipodi:cx="344.36563"
       sodipodi:cy="373.24222"
       sodipodi:rx="14.888055"
       sodipodi:ry="5.9243803"
       sodipodi:start="6.0402725"
       sodipodi:end="6.0369505"
       sodipodi:open="true"
       sodipodi:arc-type="arc"
       d="m 358.81659,371.81722 a 14.888055,5.9243803 0 0 1 -10.85792,7.17426 14.888055,5.9243803 0 0 1 -18.03803,-4.31472 14.888055,5.9243803 0 0 1 10.82796,-7.18142 14.888055,5.9243803 0 0 1 18.05602,4.30279" /><path
       style="fill:url(#linearGradient637);fill-opacity:1;fill-rule:evenodd;stroke:none;stroke-width:1.61422;stroke-dasharray:none;stroke-opacity:1"
       id="path625-41"
       sodipodi:type="arc"
       sodipodi:cx="369.78616"
       sodipodi:cy="420.25446"
       sodipodi:rx="14.888055"
       sodipodi:ry="5.9243803"
       sodipodi:start="6.0402725"
       sodipodi:end="6.0369505"
       sodipodi:open="true"
       sodipodi:arc-type="arc"
       d="m 384.23713,418.82946 a 14.888055,5.9243803 0 0 1 -10.85793,7.17426 14.888055,5.9243803 0 0 1 -18.03803,-4.31472 14.888055,5.9243803 0 0 1 10.82796,-7.18143 14.888055,5.9243803 0 0 1 18.05602,4.30279" /><path
       style="fill:url(#linearGradient636);fill-opacity:1;fill-rule:evenodd;stroke:none;stroke-width:1.61422;stroke-dasharray:none;stroke-opacity:1"
       id="path625-4"
       sodipodi:type="arc"
       sodipodi:cx="251.90292"
       sodipodi:cy="429.16364"
       sodipodi:rx="14.888055"
       sodipodi:ry="5.9243803"
       sodipodi:start="6.0402725"
       sodipodi:end="6.0369505"
       sodipodi:open="true"
       sodipodi:arc-type="arc"
       d="m 266.35389,427.73864 a 14.888055,5.9243803 0 0 1 -10.85793,7.17426 14.888055,5.9243803 0 0 1 -18.03803,-4.31472 14.888055,5.9243803 0 0 1 10.82796,-7.18143 14.888055,5.9243803 0 0 1 18.05602,4.30279" /><path
       style="fill:url(#linearGradient633);fill-opacity:1;fill-rule:evenodd;stroke:none;stroke-width:1.61422;stroke-dasharray:none;stroke-opacity:1"
       id="path625"
       sodipodi:type="arc"
       sodipodi:cx="223.0872"
       sodipodi:cy="386.41891"
       sodipodi:rx="14.888055"
       sodipodi:ry="5.9243803"
       sodipodi:start="6.0402725"
       sodipodi:end="6.0369505"
       sodipodi:open="true"
       sodipodi:arc-type="arc"
       d="m 237.53817,384.99392 a 14.888055,5.9243803 0 0 1 -10.85793,7.17426 14.888055,5.9243803 0 0 1 -18.03803,-4.31472 14.888055,5.9243803 0 0 1 10.82796,-7.18143 14.888055,5.9243803 0 0 1 18.05602,4.30279" /></g><g
     id="g723"><rect
       style="fill:url(#linearGradient671);fill-rule:evenodd;stroke:none;stroke-width:15.876"
       id="rect486"
       width="101.58435"
       height="197.96815"
       x="249.12782"
       y="221.71164"
       rx="46.440372"
       ry="19.693167" /><rect
       style="fill:url(#linearGradient681);fill-rule:evenodd;stroke-width:13.5281"
       id="rect486-1"
       width="101.58435"
       height="143.7428"
       x="249.09431"
       y="237.53503"
       rx="46.440372"
       ry="14.299022" /></g><g
     id="g724"><path
       style="fill:url(#linearGradient676);fill-opacity:1;fill-rule:evenodd;stroke:#727272;stroke-width:2.64567;stroke-dasharray:none;stroke-opacity:1"
       id="path486"
       sodipodi:type="arc"
       sodipodi:cx="300.20016"
       sodipodi:cy="245.78857"
       sodipodi:rx="51.408451"
       sodipodi:ry="26.408451"
       sodipodi:start="6.0402725"
       sodipodi:end="6.0369505"
       sodipodi:open="true"
       sodipodi:arc-type="arc"
       d="m 350.09934,239.43652 a 51.408451,26.408451 0 0 1 -37.49242,31.97991 51.408451,26.408451 0 0 1 -62.28532,-19.23324 51.408451,26.408451 0 0 1 37.38896,-32.01185 51.408451,26.408451 0 0 1 62.34743,19.18007" /></g><g
     id="g725"><rect
       style="fill:url(#linearGradient688);fill-opacity:1;fill-rule:evenodd;stroke:#bdbdbd;stroke-width:0.737669;stroke-dasharray:none;stroke-opacity:1"
       id="rect487"
       width="66.919647"
       height="47.201336"
       x="266.38828"
       y="204.58228"
       rx="40.118526"
       ry="7.1361527" /><path
       style="fill:url(#linearGradient693);fill-opacity:1;fill-rule:evenodd;stroke-width:18.3161"
       id="path487"
       sodipodi:type="arc"
       sodipodi:cx="299.49591"
       sodipodi:cy="211.00104"
       sodipodi:rx="40.316898"
       sodipodi:ry="8.026988"
       sodipodi:start="6.0402725"
       sodipodi:end="3.3951756"
       sodipodi:arc-type="slice"
       d="m 338.62916,209.0703 a 40.316898,8.026988 0 0 1 -16.33492,8.5511 40.316898,8.026988 0 0 1 -45.95016,-0.0488 40.316898,8.026988 0 0 1 -15.87572,-8.58531 l 39.02755,2.01376 z" /></g><g
     id="g726"><rect
       style="fill:url(#linearGradient698);fill-opacity:1;fill-rule:evenodd;stroke:none;stroke-width:14.9918"
       id="rect488"
       width="100.99593"
       height="102.8169"
       x="249.64182"
       y="113.47965"
       rx="50.497963"
       ry="16.197189" /><ellipse
       style="fill:url(#linearGradient703);fill-rule:evenodd;stroke-width:12.469"
       id="path488"
       cx="300.33249"
       cy="130.00287"
       rx="50.062931"
       ry="16.43276" /></g><g
     id="g727"><ellipse
       style="fill:url(#linearGradient708);fill-rule:evenodd;stroke:#dcdcdc;stroke-width:1.88976;stroke-dasharray:none;stroke-opacity:1"
       id="path488-1"
       cx="300.07333"
       cy="128.64259"
       rx="26.392017"
       ry="9.9592466" /><ellipse
       style="fill:#414141;fill-opacity:1;fill-rule:evenodd;stroke:none;stroke-width:1.02551;stroke-dasharray:none;stroke-opacity:1"
       id="path488-1-8"
       cx="300.30301"
       cy="133.54794"
       rx="19.824274"
       ry="3.904566" /></g><g
     id="g728"><text
       xml:space="preserve"
       style="font-size:8.43154px;line-height:0;text-align:start;writing-mode:lr-tb;direction:ltr;text-anchor:start;fill:none;fill-opacity:1;fill-rule:evenodd;stroke:#000000;stroke-width:0.658979;stroke-dasharray:none;stroke-opacity:1"
       x="395.09198"
       y="274.31543"
       id="text489"
       transform="matrix(0.83255706,-0.01695842,0.01610923,1.2007908,0,0)"><tspan
         id="tspan489"
         x="395.09198"
         y="274.31543"
         style="fill:none;fill-opacity:1;stroke:#000000;stroke-width:0.658979;stroke-dasharray:none;stroke-opacity:1"
         sodipodi:role="line">www</tspan></text><text
       xml:space="preserve"
       style="font-size:9.37557px;line-height:0;text-align:start;writing-mode:lr-tb;direction:ltr;text-anchor:start;fill:none;fill-opacity:1;fill-rule:evenodd;stroke:#000000;stroke-width:0.75590551;stroke-dasharray:none;stroke-opacity:1"
       x="308.60928"
       y="286.42032"
       id="text490"
       transform="matrix(0.82814987,0.01332716,-0.01646207,1.207246,0,0)"><tspan
         id="tspan490"
         x="308.60928"
         y="286.42032"
         style="stroke:#000000;stroke-width:0.75590551;stroke-dasharray:none;stroke-opacity:1;fill:none"
         sodipodi:role="line">0009-0381-900</tspan></text><text
       xml:space="preserve"
       style="font-size:8.29558px;line-height:0;text-align:start;writing-mode:lr-tb;direction:ltr;text-anchor:start;fill:none;fill-opacity:1;fill-rule:evenodd;stroke-width:0.755906;stroke-dasharray:none"
       x="271.68518"
       y="351.65488"
       id="text491"
       transform="scale(0.95335647,1.0489256)"><tspan
         id="tspan491"
         x="271.68518"
         y="351.65488"
         style="stroke:#000000;stroke-width:0.755906;stroke-dasharray:none;stroke-opacity:1;fill:none"
         sodipodi:role="line">250 PSIG --- 85KG</tspan></text><path
       id="rect718-1-1"
       style="fill:#1a1a1a;fill-rule:evenodd;stroke-width:1.41908"
       d="m 248.87603,268.81126 c 9.01968,6.87347 11.42047,7.71357 23.2478,10.71373 l 0.23268,21.11428 c -12.95883,-3.6227 -15.30313,-4.79168 -23.3872,-9.95746 z"
       sodipodi:nodetypes="ccccc" /><path
       d="m 540.24245,93.070373 c 0,0.134047 -0.0237,0.258616 -0.0711,0.373707 -0.0461,0.113737 -0.11106,0.21258 -0.19497,0.296529 -0.10426,0.104259 -0.22748,0.182792 -0.36965,0.235599 -0.14217,0.05145 -0.32158,0.07718 -0.53822,0.07718 h -0.40214 v 1.127216 h -0.40214 v -3.02419 h 0.82053 c 0.18144,0 0.33512,0.01557 0.46104,0.04671 0.12593,0.02979 0.23763,0.07718 0.33512,0.142171 0.11509,0.07718 0.20378,0.173314 0.26606,0.288405 0.0637,0.115091 0.0955,0.260648 0.0955,0.43667 z m -0.41839,0.01015 c 0,-0.104259 -0.0183,-0.194978 -0.0548,-0.272157 -0.0365,-0.07718 -0.0921,-0.14014 -0.16654,-0.188885 -0.065,-0.04197 -0.13947,-0.07176 -0.22341,-0.08937 -0.0826,-0.01895 -0.18754,-0.02843 -0.31481,-0.02843 h -0.39808 v 1.208457 h 0.33918 c 0.16248,0 0.2945,-0.01422 0.39605,-0.04265 0.10155,-0.02979 0.18414,-0.0765 0.24778,-0.140141 0.0637,-0.06499 0.10835,-0.133371 0.13405,-0.205133 0.0271,-0.07176 0.0406,-0.152326 0.0406,-0.241691 z m 3.23135,2.100075 h -0.42854 l -0.29653,-0.842874 h -1.30798 l -0.29653,0.842874 h -0.40823 l 1.10081,-3.02419 h 0.53619 z m -0.84896,-1.188147 -0.5301,-1.484676 -0.53213,1.484676 z m 3.81019,1.188147 h -0.52197 l -1.01145,-1.202364 h -0.56665 v 1.202364 h -0.40215 v -3.02419 h 0.84694 c 0.18279,0 0.33512,0.01219 0.45698,0.03656 0.12186,0.02302 0.23154,0.06499 0.32903,0.125923 0.10967,0.06906 0.19497,0.156389 0.2559,0.262002 0.0623,0.104259 0.0934,0.236952 0.0934,0.39808 0,0.217996 -0.0548,0.400788 -0.16451,0.548375 -0.10967,0.146233 -0.26065,0.256586 -0.45292,0.331057 z m -0.94036,-2.173192 c 0,-0.08666 -0.0156,-0.163158 -0.0467,-0.229505 -0.0298,-0.0677 -0.0799,-0.124569 -0.1503,-0.170606 -0.0582,-0.03927 -0.12725,-0.06635 -0.20716,-0.08124 -0.0799,-0.01625 -0.17399,-0.02437 -0.28232,-0.02437 h -0.47322 v 1.141433 h 0.4062 c 0.12728,0 0.23831,-0.01083 0.33309,-0.0325 0.0948,-0.02302 0.17534,-0.06499 0.24169,-0.125923 0.0609,-0.05687 0.10562,-0.121859 0.13405,-0.194978 0.0298,-0.07447 0.0447,-0.168575 0.0447,-0.282312 z m 3.76145,2.173192 h -0.52197 l -1.19627,-1.346567 -0.30059,0.320902 v 1.025665 h -0.40215 v -3.02419 h 0.40215 v 1.578103 l 1.46842,-1.578103 h 0.48745 l -1.35063,1.421715 z m 2.44332,0 h -1.99243 v -3.02419 h 1.99243 v 0.35746 h -1.59029 v 0.828656 h 1.59029 v 0.35746 h -1.59029 v 1.123154 h 1.59029 z m 3.13996,0 h -0.52198 l -1.01145,-1.202364 h -0.56665 v 1.202364 h -0.40214 v -3.02419 h 0.84693 c 0.18279,0 0.33512,0.01219 0.45698,0.03656 0.12186,0.02302 0.23154,0.06499 0.32903,0.125923 0.10967,0.06906 0.19498,0.156389 0.25591,0.262002 0.0623,0.104259 0.0934,0.236952 0.0934,0.39808 0,0.217996 -0.0548,0.400788 -0.16451,0.548375 -0.10967,0.146233 -0.26065,0.256586 -0.45292,0.331057 z m -0.94037,-2.173192 c 0,-0.08666 -0.0156,-0.163158 -0.0467,-0.229505 -0.0298,-0.0677 -0.0799,-0.124569 -0.1503,-0.170606 -0.0582,-0.03927 -0.12725,-0.06635 -0.20716,-0.08124 -0.0799,-0.01625 -0.17399,-0.02437 -0.28231,-0.02437 h -0.47323 v 1.141433 h 0.4062 c 0.12728,0 0.23831,-0.01083 0.33309,-0.0325 0.0948,-0.02302 0.17534,-0.06499 0.24169,-0.125923 0.0609,-0.05687 0.10562,-0.121859 0.13405,-0.194978 0.0298,-0.07447 0.0447,-0.168575 0.0447,-0.282312 z"
       id="text718-8-0"
       style="fill:#f9f9f9;fill-rule:evenodd;stroke-width:1.47385"
       transform="matrix(0.7917755,0.36019668,-0.22512121,1.338342,-153.36927,-37.129089)"
       aria-label="PARKER"
       inkscape:original-d="m 540.24245,93.070373 c 0,0.134047 -0.0237,0.258616 -0.0711,0.373707 -0.0461,0.113737 -0.11106,0.21258 -0.19497,0.296529 -0.10426,0.104259 -0.22748,0.182792 -0.36965,0.235599 -0.14217,0.05145 -0.32158,0.07718 -0.53822,0.07718 h -0.40214 v 1.127216 h -0.40214 v -3.02419 h 0.82053 c 0.18144,0 0.33512,0.01557 0.46104,0.04671 0.12593,0.02979 0.23763,0.07718 0.33512,0.142171 0.11509,0.07718 0.20378,0.173314 0.26606,0.288405 0.0637,0.115091 0.0955,0.260648 0.0955,0.43667 z m -0.41839,0.01015 c 0,-0.104259 -0.0183,-0.194978 -0.0548,-0.272157 -0.0365,-0.07718 -0.0921,-0.14014 -0.16654,-0.188885 -0.065,-0.04197 -0.13947,-0.07176 -0.22341,-0.08937 -0.0826,-0.01895 -0.18754,-0.02843 -0.31481,-0.02843 h -0.39808 v 1.208457 h 0.33918 c 0.16248,0 0.2945,-0.01422 0.39605,-0.04265 0.10155,-0.02979 0.18414,-0.0765 0.24778,-0.140141 0.0637,-0.06499 0.10835,-0.133371 0.13405,-0.205133 0.0271,-0.07176 0.0406,-0.152326 0.0406,-0.241691 z m 3.23135,2.100075 h -0.42854 l -0.29653,-0.842874 h -1.30798 l -0.29653,0.842874 h -0.40823 l 1.10081,-3.02419 h 0.53619 z m -0.84896,-1.188147 -0.5301,-1.484676 -0.53213,1.484676 z m 3.81019,1.188147 h -0.52197 l -1.01145,-1.202364 h -0.56665 v 1.202364 h -0.40215 v -3.02419 h 0.84694 c 0.18279,0 0.33512,0.01219 0.45698,0.03656 0.12186,0.02302 0.23154,0.06499 0.32903,0.125923 0.10967,0.06906 0.19497,0.156389 0.2559,0.262002 0.0623,0.104259 0.0934,0.236952 0.0934,0.39808 0,0.217996 -0.0548,0.400788 -0.16451,0.548375 -0.10967,0.146233 -0.26065,0.256586 -0.45292,0.331057 z m -0.94036,-2.173192 c 0,-0.08666 -0.0156,-0.163158 -0.0467,-0.229505 -0.0298,-0.0677 -0.0799,-0.124569 -0.1503,-0.170606 -0.0582,-0.03927 -0.12725,-0.06635 -0.20716,-0.08124 -0.0799,-0.01625 -0.17399,-0.02437 -0.28232,-0.02437 h -0.47322 v 1.141433 h 0.4062 c 0.12728,0 0.23831,-0.01083 0.33309,-0.0325 0.0948,-0.02302 0.17534,-0.06499 0.24169,-0.125923 0.0609,-0.05687 0.10562,-0.121859 0.13405,-0.194978 0.0298,-0.07447 0.0447,-0.168575 0.0447,-0.282312 z m 3.76145,2.173192 h -0.52197 l -1.19627,-1.346567 -0.30059,0.320902 v 1.025665 h -0.40215 v -3.02419 h 0.40215 v 1.578103 l 1.46842,-1.578103 h 0.48745 l -1.35063,1.421715 z m 2.44332,0 h -1.99243 v -3.02419 h 1.99243 v 0.35746 h -1.59029 v 0.828656 h 1.59029 v 0.35746 h -1.59029 v 1.123154 h 1.59029 z m 3.13996,0 h -0.52198 l -1.01145,-1.202364 h -0.56665 v 1.202364 h -0.40214 v -3.02419 h 0.84693 c 0.18279,0 0.33512,0.01219 0.45698,0.03656 0.12186,0.02302 0.23154,0.06499 0.32903,0.125923 0.10967,0.06906 0.19498,0.156389 0.25591,0.262002 0.0623,0.104259 0.0934,0.236952 0.0934,0.39808 0,0.217996 -0.0548,0.400788 -0.16451,0.548375 -0.10967,0.146233 -0.26065,0.256586 -0.45292,0.331057 z m -0.94037,-2.173192 c 0,-0.08666 -0.0156,-0.163158 -0.0467,-0.229505 -0.0298,-0.0677 -0.0799,-0.124569 -0.1503,-0.170606 -0.0582,-0.03927 -0.12725,-0.06635 -0.20716,-0.08124 -0.0799,-0.01625 -0.17399,-0.02437 -0.28231,-0.02437 h -0.47323 v 1.141433 h 0.4062 c 0.12728,0 0.23831,-0.01083 0.33309,-0.0325 0.0948,-0.02302 0.17534,-0.06499 0.24169,-0.125923 0.0609,-0.05687 0.10562,-0.121859 0.13405,-0.194978 0.0298,-0.07447 0.0447,-0.168575 0.0447,-0.282312 z"
       inkscape:path-effect="#path-effect5-4" /><path
       id="rect718-6-6"
       style="fill:#1a1a1a;fill-rule:evenodd;stroke-width:1.55611"
       d="m 250.33916,261.15493 c 3.92165,4.63099 0,0 0,0 z"
       sodipodi:nodetypes="cc" /></g></svg>
