<?xml version="1.0" encoding="UTF-8" standalone="no"?>
<!-- Created with Inkscape (http://www.inkscape.org/) -->

<svg
   width="297mm"
   height="210mm"
   viewBox="0 0 1122.5197 793.70081"
   version="1.1"
   id="schematic-window"
   xml:space="preserve"
   inkscape:version="1.4 (86a8ad7, 2024-10-11)"
   sodipodi:docname="Wire-hook-antenna.svg"
   xmlns:inkscape="http://www.inkscape.org/namespaces/inkscape"
   xmlns:sodipodi="http://sodipodi.sourceforge.net/DTD/sodipodi-0.dtd"
   xmlns:xlink="http://www.w3.org/1999/xlink"
   xmlns="http://www.w3.org/2000/svg"
   xmlns:svg="http://www.w3.org/2000/svg"><sodipodi:namedview
     id="namedview1"
     pagecolor="#ffffff"
     bordercolor="#999999"
     borderopacity="1"
     inkscape:showpageshadow="2"
     inkscape:pageopacity="0"
     inkscape:pagecheckerboard="0"
     inkscape:deskcolor="#d1d1d1"
     inkscape:document-units="mm"
     inkscape:zoom="0.80441828"
     inkscape:cx="419.55784"
     inkscape:cy="338.13254"
     inkscape:window-width="1920"
     inkscape:window-height="1057"
     inkscape:window-x="-8"
     inkscape:window-y="-8"
     inkscape:window-maximized="1"
     inkscape:current-layer="g313"
     showgrid="false" /><defs
     id="defs1"><linearGradient
       id="linearGradient304"
       inkscape:collect="always"><stop
         style="stop-color:#afafaf;stop-opacity:0.7548638;"
         offset="0"
         id="stop304" /><stop
         style="stop-color:#f3f3f3;stop-opacity:1;"
         offset="0.5"
         id="stop306" /><stop
         style="stop-color:#f8f8f8;stop-opacity:1;"
         offset="0.625"
         id="stop309" /><stop
         style="stop-color:#f2f2f2;stop-opacity:1;"
         offset="0.75"
         id="stop307" /><stop
         style="stop-color:#acacac;stop-opacity:1;"
         offset="0.875"
         id="stop308" /><stop
         style="stop-color:#d3d3d3;stop-opacity:1;"
         offset="1"
         id="stop305" /></linearGradient><linearGradient
       id="linearGradient295"
       inkscape:collect="always"><stop
         style="stop-color:#a0a0a0;stop-opacity:1;"
         offset="0"
         id="stop296" /><stop
         style="stop-color:#cccccc;stop-opacity:1;"
         offset="0.5"
         id="stop298" /><stop
         style="stop-color:#666666;stop-opacity:1;"
         offset="0.75"
         id="stop299" /><stop
         style="stop-color:#b4b4b4;stop-opacity:1;"
         offset="1"
         id="stop297" /></linearGradient><linearGradient
       id="linearGradient291"
       inkscape:collect="always"><stop
         style="stop-color:#aca897;stop-opacity:1;"
         offset="0"
         id="stop292" /><stop
         style="stop-color:#cdc8be;stop-opacity:1;"
         offset="0.5"
         id="stop294" /><stop
         style="stop-color:#bfbab2;stop-opacity:1;"
         offset="0.75"
         id="stop295" /><stop
         style="stop-color:#a19c93;stop-opacity:1;"
         offset="1"
         id="stop293" /></linearGradient><linearGradient
       id="linearGradient287"
       inkscape:collect="always"><stop
         style="stop-color:#e7e7e7;stop-opacity:1;"
         offset="0"
         id="stop287" /><stop
         style="stop-color:#e8e8e8;stop-opacity:1;"
         offset="0.5"
         id="stop289" /><stop
         style="stop-color:#eaeaea;stop-opacity:1;"
         offset="0.75"
         id="stop290" /><stop
         style="stop-color:#e6e6e6;stop-opacity:1;"
         offset="0.875"
         id="stop291" /><stop
         style="stop-color:#d7d7d7;stop-opacity:1;"
         offset="1"
         id="stop288" /></linearGradient><inkscape:path-effect
       effect="fillet_chamfer"
       id="path-effect286"
       is_visible="true"
       lpeversion="1"
       nodesatellites_param="F,0,0,1,0,0,0,1 @ F,0,0,1,0,0,0,1 @ F,0,0,1,0,0,0,1 @ F,0,0,1,0,0,0,1 @ F,0,0,1,0,0,0,1 @ F,0,0,1,0,22.827757,0,1"
       radius="0"
       unit="px"
       method="auto"
       mode="F"
       chamfer_steps="1"
       flexible="false"
       use_knot_distance="true"
       apply_no_radius="true"
       apply_with_radius="true"
       only_selected="false"
       hide_knots="false" /><inkscape:path-effect
       effect="fillet_chamfer"
       id="path-effect285"
       is_visible="true"
       lpeversion="1"
       nodesatellites_param="F,0,0,1,0,0,0,1 @ F,0,0,1,0,0,0,1 @ F,0,0,1,0,0,0,1 @ F,0,0,1,0,0,0,1 @ F,0,0,1,0,0,0,1 @ F,0,0,1,0,14.805768,0,1"
       radius="0"
       unit="px"
       method="auto"
       mode="F"
       chamfer_steps="1"
       flexible="false"
       use_knot_distance="true"
       apply_no_radius="true"
       apply_with_radius="true"
       only_selected="false"
       hide_knots="false" /><inkscape:path-effect
       effect="fillet_chamfer"
       id="path-effect218"
       is_visible="true"
       lpeversion="1"
       nodesatellites_param="F,0,0,1,0,0,0,1 @ F,0,0,1,0,0,0,1 @ F,0,0,1,0,0,0,1 @ F,0,0,1,0,0,0,1 @ F,0,0,1,0,0,0,1"
       radius="0"
       unit="px"
       method="auto"
       mode="F"
       chamfer_steps="1"
       flexible="false"
       use_knot_distance="true"
       apply_no_radius="true"
       apply_with_radius="true"
       only_selected="false"
       hide_knots="false" /><inkscape:path-effect
       effect="fillet_chamfer"
       id="path-effect3"
       is_visible="true"
       lpeversion="1"
       nodesatellites_param="F,0,0,1,0,25.15249,0,1 @ F,0,0,1,0,0,0,1 @ F,0,0,1,0,0,0,1 @ F,0,0,1,0,0,0,1"
       radius="0"
       unit="px"
       method="auto"
       mode="F"
       chamfer_steps="1"
       flexible="false"
       use_knot_distance="true"
       apply_no_radius="true"
       apply_with_radius="true"
       only_selected="false"
       hide_knots="false" /><inkscape:path-effect
       effect="fillet_chamfer"
       id="path-effect583"
       is_visible="true"
       lpeversion="1"
       nodesatellites_param="F,0,0,1,0,33.398438,0,1 @ F,0,0,1,0,88.338569,0,1 @ F,0,0,1,0,0,0,1 @ F,0,0,1,0,0,0,1"
       radius="0"
       unit="px"
       method="auto"
       mode="F"
       chamfer_steps="1"
       flexible="false"
       use_knot_distance="true"
       apply_no_radius="true"
       apply_with_radius="true"
       only_selected="false"
       hide_knots="false" /><inkscape:path-effect
       effect="fillet_chamfer"
       id="path-effect2"
       is_visible="true"
       lpeversion="1"
       nodesatellites_param="F,0,0,1,0,17.794385,0,1 @ F,0,0,1,0,2.8151611,0,1 @ F,0,0,1,0,0,0,1 @ F,0,0,1,0,0,0,1"
       radius="0"
       unit="px"
       method="auto"
       mode="F"
       chamfer_steps="1"
       flexible="false"
       use_knot_distance="true"
       apply_no_radius="true"
       apply_with_radius="true"
       only_selected="false"
       hide_knots="false" /><inkscape:path-effect
       effect="fillet_chamfer"
       id="path-effect2-5"
       is_visible="true"
       lpeversion="1"
       nodesatellites_param="F,0,0,1,0,0,0,1 @ F,0,0,1,0,0,0,1 @ F,0,0,1,0,0,0,1 @ F,0,0,1,0,0,0,1"
       radius="0"
       unit="px"
       method="auto"
       mode="F"
       chamfer_steps="1"
       flexible="false"
       use_knot_distance="true"
       apply_no_radius="true"
       apply_with_radius="true"
       only_selected="false"
       hide_knots="false" /><clipPath
       clipPathUnits="userSpaceOnUse"
       id="clipPath461"><path
         id="path462"
         style="fill:#ff0000;fill-opacity:1;fill-rule:nonzero;stroke:none;stroke-width:1.09307"
         d="m 717.79982,232.81103 v 448.61454 h 27.90352 V 268.91296 c -0.64137,0.0624 -1.28324,0.12431 -1.92492,0.1794 -0.3661,0.0329 -0.73249,0.0552 -1.0994,0.0699 -0.0423,0.002 -0.0829,0.004 -0.12519,0.005 -1.60092,0.0543 -2.28618,-1.05614 -2.02665,-1.99906 -0.20889,-0.0376 -0.40776,-0.092 -0.46167,-0.30056 -0.53529,-2.07178 -0.51808,-2.30522 0.0763,-2.69571 -0.11889,-0.39641 -0.20307,-0.71445 -0.23475,-0.93663 -0.0811,-0.0181 -0.14422,-0.0614 -0.17019,-0.16075 -0.26772,-1.02411 0.0298,-2.14515 0.045,-3.21761 0.11551,-0.0247 0.23061,-0.0507 0.34625,-0.0746 -0.72482,-1.9081 -0.60305,-2.31989 0.25236,-2.60717 -0.004,-0.1813 -0.007,-0.36279 -0.0176,-0.54287 0.0215,-0.004 0.0431,-0.008 0.0645,-0.0119 0.0132,-0.029 0.0536,-0.029 0.10564,-0.0186 h 0.002 c 0.22122,-0.0384 0.44183,-0.0767 0.66316,-0.11416 -0.0247,-0.041 -0.0505,-0.0821 -0.0743,-0.12349 -0.0882,0.008 -0.16856,-0.008 -0.22692,-0.0885 -0.6049,-0.8334 -1.00152,-1.88855 -1.25003,-2.94967 -0.0495,-0.21124 0.31528,-0.23205 0.48515,-0.31686 0.0805,-0.0402 0.33174,-0.13535 0.60838,-0.23533 -0.21842,-0.49569 -0.41055,-1.0172 -0.65338,-1.4888 0.22229,-0.17577 0.42767,-0.38856 0.66707,-0.52889 0.11127,-0.0653 0.53292,-0.19831 0.92334,-0.31688 -0.30715,-0.743 -0.44326,-1.60725 -0.71011,-2.37883 -0.30218,0.0499 -0.60519,0.0929 -0.90768,0.13979 -0.32911,0.0221 -1.65259,0.21778 -1.70387,-0.44035 -0.062,-0.79538 0.18577,-1.59283 0.50666,-2.32292 -0.67771,-0.88739 0.12604,-2.14538 1.91905,-2.34388 -0.19303,-0.51185 -0.33494,-1.05039 -0.37559,-1.59832 -1.67846,-0.44649 -1.84936,-2.33456 -0.51253,-2.97296 -0.63753,-0.87625 -0.22734,-2.21205 1.26176,-2.43942 10e-4,-0.2025 0.17214,-0.41445 0.51057,-0.44035 0.0755,-0.006 0.1513,-0.01 0.22692,-0.0119 0.0778,-0.002 0.15497,-0.004 0.23279,-0.005 0.0784,9.9e-4 0.15633,0.005 0.23475,0.01 0.0733,0.002 0.14774,0.004 0.22105,0.005 0.0709,5.8e-4 0.14232,-1.5e-4 0.21323,0 0.0643,9e-5 0.12741,-4e-5 0.19171,0 h 0.18584 0.17997 c 0.0675,0 0.13604,0 0.20345,-0.002 0.0736,-0.004 0.14734,-0.005 0.22105,-0.01 0.0608,-0.001 0.12114,-0.002 0.18193,-0.002 0.0673,-3.7e-4 0.13419,6e-5 0.20149,0 0.0468,9.9e-4 0.094,-0.004 0.14085,-0.007 0.0538,-0.006 0.10653,-0.005 0.16041,-0.01 0.0452,-9.9e-4 0.0917,-0.002 0.13694,-0.002 0.0459,-0.006 0.0924,-0.005 0.13889,-0.01 0.0584,-0.004 0.11756,-0.004 0.17606,-0.005 0.0667,-7.2e-4 0.13283,-0.002 0.19953,-0.002 0.0653,-1e-4 0.13032,2e-5 0.19562,0 0.0715,-1e-5 0.14367,0 0.21519,0 h 0.17997 v -2.77958 z m 23.19294,23.31073 c -0.005,0.001 -0.009,0.004 -0.0137,0.005 -0.0266,0.008 -0.0107,0.007 0.0195,0.005 -0.002,-0.004 -0.004,-0.005 -0.006,-0.01 z" /></clipPath><clipPath
       clipPathUnits="userSpaceOnUse"
       id="clipPath541"><path
         id="path542"
         style="fill:#ff0000;fill-opacity:1;fill-rule:nonzero;stroke:none;stroke-width:1.38048"
         d="m 717.79913,673.26382 c 0.6346,-0.006 1.269,0.0198 1.90337,-0.022 0.99736,-0.0942 1.99749,-0.11607 2.99479,-0.20943 0.95224,-0.12547 1.90672,-0.15821 2.85919,-0.27188 0.99589,-0.13902 1.99344,-0.2216 2.99149,-0.27922 0.97678,-0.0516 1.9532,-0.0672 2.9303,-0.0809 0.6797,-0.009 1.35924,-0.0132 2.03897,-0.015 0.49729,-10e-4 0.99595,3e-4 1.49326,0 0.52777,-2.7e-4 1.05478,3e-5 1.58256,0 0.60375,-4e-5 1.20866,2e-5 1.81242,0 h 2.08693 1.58918 c 0.0134,-0.11701 0.0549,-0.22363 0.12402,-0.29027 -0.12782,-0.0623 -0.21097,-0.20354 -0.21828,-0.37843 -6e-4,-0.015 -2e-4,-0.0297 0,-0.044 0.003,-0.22935 0.10916,-0.45303 0.31254,-0.43721 0.0819,0.008 0.16329,0.0237 0.24474,0.044 0.0159,-0.0378 0.0474,-0.0589 0.081,-0.0736 -0.003,-0.0948 0.0376,-0.19105 0.12237,-0.19105 h 0.0116 0.038 0.0331 0.0364 0.0314 0.0347 c 0.0116,0 0.0232,-4e-5 0.0347,0 0.012,4e-5 0.0244,-1.7e-4 0.0364,0 0.0133,2.3e-4 0.0279,-8.4e-4 0.0413,0 0.0155,0.002 0.0308,0.006 0.0463,0.008 0.0141,0.002 0.0271,0.002 0.0413,0.004 0.0136,0.002 0.0278,0.004 0.0413,0.008 0.01,0.004 0.0198,0.002 0.0298,0.004 0.0105,0.002 0.0209,-0.002 0.0314,0 0.0127,1.1e-4 0.0253,0.004 0.038,0.004 0.0119,0.002 0.0245,0.002 0.0364,0.004 0.0122,0.002 0.0241,0.004 0.0364,0.004 h 0.0413 0.0314 0.0314 0.0331 0.0331 0.0297 0.0347 c 0.01,2e-5 0.0198,0 0.0298,0 0.0132,2e-5 0.0265,-9e-5 0.0397,0 0.0108,6e-5 0.0224,-5.6e-4 0.0331,0 0.0108,0 0.0206,0.002 0.0314,0.004 0.008,0.002 0.0164,0.004 0.0215,0.004 0.009,0.002 0.0162,0.006 0.0248,0.008 -0.003,8.1e-4 -1.3e-4,0 0.005,0 h 0.0149 0.005 v -0.008 c 0.12502,0 0.15524,0.21439 0.0893,0.31598 0.0148,0.0284 0.0489,0.0344 0.0512,0.0698 0.003,0.0132 -8.4e-4,0.022 0,0.0367 v 0.004 c -0.002,0.0286 -0.008,0.0561 -0.0182,0.0809 -0.008,0.0348 -3.2e-4,0.0752 -0.0215,0.0991 0.0937,0.0113 0.18747,0.0263 0.28113,0.022 0.40698,-0.015 0.40698,0.90167 0,0.91484 -0.0546,0.002 -0.10913,-0.008 -0.16371,-0.0113 0.0129,0.085 -0.0125,0.18417 -0.076,0.21677 0.66442,0.22931 1.28227,0.53219 1.77439,0.99936 V 230.58313 H 717.799 Z" /></clipPath><inkscape:path-effect
       effect="fillet_chamfer"
       id="path-effect2-1"
       is_visible="true"
       lpeversion="1"
       nodesatellites_param="F,0,0,1,0,17.794385,0,1 @ F,0,0,1,0,0,0,1 @ F,0,0,1,0,0,0,1 @ F,0,0,1,0,0,0,1"
       radius="0"
       unit="px"
       method="auto"
       mode="F"
       chamfer_steps="1"
       flexible="false"
       use_knot_distance="true"
       apply_no_radius="true"
       apply_with_radius="true"
       only_selected="false"
       hide_knots="false" /><clipPath
       clipPathUnits="userSpaceOnUse"
       id="clipPath582"><path
         id="path583"
         style="fill:#ff0000;fill-opacity:1;fill-rule:nonzero;stroke:none;stroke-width:1.09307"
         d="m 740.44895,241.67348 c -1.04264,0.11905 -2.08518,0.23792 -3.128,0.35647 -2.83786,0.31132 -5.67432,0.64023 -8.51151,0.95993 -0.21952,1.63299 -0.43954,3.2663 -0.65729,4.89979 -0.97651,7.32527 -4.33283,10.76196 -7.50211,10.84107 v 0.94128 c -0.002,0.96767 0.005,1.93546 -0.004,2.90307 -0.003,0.55752 -0.0377,1.11398 -0.0665,1.67054 2.05932,0.0371 4.11873,0.0742 6.17774,0.11881 2.33492,0.0672 4.66978,0.0804 7.00523,0.0723 1.54496,-0.006 2.1054,1.17878 1.68039,2.03867 0.67753,0.0246 1.35496,0.047 2.03251,0.0769 0.84783,0.04 1.69657,0.063 2.54505,0.0816 -0.44249,-1.75264 -0.43815,-2.09519 0.12128,-2.46272 -0.11889,-0.3964 -0.20306,-0.71443 -0.23474,-0.93661 -0.0811,-0.0181 -0.14423,-0.0614 -0.1702,-0.16077 -0.26772,-1.02408 0.0299,-2.14512 0.045,-3.21761 0.11551,-0.0247 0.23061,-0.0507 0.34625,-0.0746 -0.72482,-1.9081 -0.6031,-2.3199 0.25235,-2.60717 -0.004,-0.1813 -0.007,-0.36276 -0.0176,-0.54287 0.0215,-0.004 0.0432,-0.008 0.0646,-0.0119 0.0132,-0.029 0.0536,-0.029 0.10564,-0.0186 h 0.002 c 0.22122,-0.0384 0.44183,-0.0767 0.66316,-0.11416 -0.0247,-0.041 -0.0513,-0.0821 -0.0743,-0.12348 -0.0882,0.008 -0.16856,-0.008 -0.22692,-0.0885 -0.6049,-0.83342 -1.00151,-1.88854 -1.25002,-2.94966 -0.0495,-0.21129 0.31527,-0.23207 0.48514,-0.31687 0.0805,-0.0402 0.33174,-0.13534 0.60838,-0.23533 -0.21842,-0.49568 -0.41054,-1.01722 -0.65337,-1.4888 0.22229,-0.17578 0.42767,-0.38857 0.66707,-0.52889 0.11127,-0.0652 0.53291,-0.19829 0.92333,-0.31688 -0.30715,-0.74299 -0.44325,-1.60728 -0.7101,-2.37882 -0.30218,0.0499 -0.6052,0.0929 -0.90769,0.13979 -0.32911,0.0221 -1.65262,0.21777 -1.70387,-0.44036 -0.062,-0.79536 0.18577,-1.59281 0.50666,-2.32292 -0.67771,-0.88735 0.12605,-2.14538 1.91906,-2.34388 -0.17134,-0.45431 -0.27684,-0.93465 -0.33256,-1.41891 z m 0.54383,14.44776 c -0.005,9.9e-4 -0.009,0.004 -0.0137,0.005 -0.0266,0.008 -0.01,0.01 0.0195,0.007 -0.002,-0.004 -0.004,-0.007 -0.006,-0.0119 z m -23.19295,13.46221 v 411.84159 h 27.90353 V 270.34533 c -0.1761,0 -0.35219,1e-5 -0.52818,0 -0.5133,-5e-5 -1.02625,2.3e-4 -1.53955,0 -0.44559,-10e-4 -0.89245,-10e-4 -1.33805,-0.002 -0.53747,-0.002 -1.07448,-0.005 -1.61193,-0.0119 -0.66818,-0.01 -1.33526,-0.0235 -2.00317,-0.0489 -0.77559,-0.0285 -1.55214,-0.0579 -2.3279,-0.0792 -0.67546,-0.0144 -1.34966,-0.0346 -2.02469,-0.0675 -0.58234,-0.0185 -1.16476,-0.0468 -1.7469,-0.0722 -0.51791,-0.0229 -1.03705,-0.0443 -1.5552,-0.0582 -0.57961,-0.0233 -1.15725,-0.0564 -1.73712,-0.0699 -0.60029,-0.0149 -1.20144,-0.0132 -1.80168,-0.0327 -0.62248,-0.0187 -1.24575,-0.046 -1.86819,-0.0653 -0.59685,-0.021 -1.19299,-0.0508 -1.78994,-0.0675 -0.88425,-0.034 -1.76808,-0.0716 -2.65264,-0.0932 -1.12602,-0.0362 -2.25222,-0.0641 -3.37839,-0.0932 z" /></clipPath><clipPath
       clipPathUnits="userSpaceOnUse"
       id="clipPath256"><path
         id="path256"
         style="fill:#ff0000;fill-opacity:1;fill-rule:nonzero;stroke:none;stroke-width:1.01757"
         d="m 635.33242,380.08295 v 351.2026 h 25.15369 v -326.4154 c -0.6817,-0.008 -1.35991,-0.7124 -1.35951,-2.1142 6e-5,-0.18024 -1.4e-4,-0.36046 0,-0.5407 10e-4,-0.39295 9.5e-4,-0.78566 0.002,-1.17861 0.002,-0.53966 0.004,-1.08045 0.01,-1.62007 0.007,-0.55854 0.0154,-1.11654 0.0351,-1.67477 0.0125,-0.36361 0.0184,-0.72772 0.0234,-1.09152 0.0106,-0.45526 0.0242,-0.90962 0.0332,-1.36492 0.009,-0.63879 -8.5e-4,-1.27897 -0.006,-1.91777 -0.009,-0.66525 -0.0216,-1.32988 -0.0468,-1.99471 -0.023,-0.59939 -0.0547,-1.19822 -0.0507,-1.79829 v -1.5411 -1.24138 -0.98016 -1.0247 -0.74523 -0.66626 -0.84851 -0.82826 -1.4034 -0.21264 z" /></clipPath><clipPath
       clipPathUnits="userSpaceOnUse"
       id="clipPath257"><path
         id="path257"
         style="fill:#ff0000;fill-opacity:1;fill-rule:nonzero;stroke:none;stroke-width:1.01757"
         d="M 634.35327,379.10281 V 732.26367 H 661.4633 V 404.30515 c -0.76283,1.10336 -2.33731,0.58831 -2.3367,-1.5492 6e-5,-0.18024 -1.4e-4,-0.36046 0,-0.5407 10e-4,-0.39295 9.5e-4,-0.78566 0.002,-1.17861 0.002,-0.53966 0.004,-1.08045 0.01,-1.62007 0.007,-0.55854 0.0154,-1.11654 0.0351,-1.67477 0.0125,-0.36361 0.0184,-0.72772 0.0234,-1.09152 0.0106,-0.45526 0.0242,-0.90962 0.0332,-1.36492 0.009,-0.63879 -8.5e-4,-1.27897 -0.006,-1.91777 -0.009,-0.66525 -0.0216,-1.32988 -0.0468,-1.99471 -0.023,-0.59939 -0.0547,-1.19822 -0.0507,-1.79829 v -1.5411 -1.24138 -0.98016 -1.0247 -0.74523 -0.66626 -0.84851 -0.82826 -1.4034 -1.13 -0.0627 z" /></clipPath><clipPath
       clipPathUnits="userSpaceOnUse"
       id="clipPath270"><path
         id="path270"
         style="fill:#ff0000;fill-opacity:1;fill-rule:nonzero;stroke:none"
         d="m 368.69336,-669.04883 h 0.89648 c 0.38952,0.007 0.77884,-0.011 1.16797,-0.0254 0.34257,-0.0133 0.68652,-0.0194 1.0293,-0.0234 0.44815,-0.004 0.89559,-0.005 1.34375,-0.006 0.6421,-9e-4 1.28381,-0.0195 1.92578,-0.0312 0.62595,-0.0111 1.25288,-0.0165 1.87891,-0.0195 0.62619,0.003 1.25097,-0.0163 1.87695,-0.0293 0.74128,-0.0151 1.4832,-0.0194 2.22461,-0.0234 0.737,-0.004 1.47393,-0.005 2.21094,-0.006 0.71531,-7.1e-4 1.43117,-0.002 2.14648,-0.002 0.88714,7e-4 1.7731,0.0201 2.66016,0.0312 0.80496,0.01 1.611,0.0155 2.41601,0.0195 0.70888,0.003 1.41807,0.003 2.12696,0.004 0.80315,-0.005 1.60518,0.007 2.4082,0.0195 0.67331,0.0106 1.34638,0.0147 2.01953,0.0195 v -143.1875 h -28.33203 z" /></clipPath><clipPath
       clipPathUnits="userSpaceOnUse"
       id="clipPath283"><path
         id="path283"
         style="fill:#ff0000;fill-opacity:1;fill-rule:nonzero;stroke:none;stroke-width:1.01757"
         d="m 634.35446,379.10281 v 353.16085 h 27.11002 V 411.59145 c -1.18578,0.52504 -2.63321,-0.52905 -2.42837,-3.00929 0.01,-0.11848 0.0148,-0.23712 0.01,-0.35641 -10e-6,-0.20645 6e-5,-0.41323 0,-0.61969 -8e-5,-0.26126 3.5e-4,-0.52245 0,-0.78371 0,-0.32142 -0.002,-0.64254 -0.004,-0.96395 -0.003,-0.2852 -0.008,-0.56955 -0.0176,-0.85459 -0.0168,-0.45978 -0.0365,-0.92013 -0.0683,-1.37909 -0.0368,-0.51773 -0.0733,-1.03532 -0.10727,-1.55325 -0.029,-0.64968 -0.0702,-1.29918 -0.11118,-1.94815 -0.0349,-0.72041 -0.073,-1.43922 -0.078,-2.16077 10e-4,-0.54781 -10e-5,-1.09659 0.004,-1.64438 0.004,-0.43626 0.0117,-0.87215 0.0254,-1.30822 0.0167,-0.53176 0.0385,-1.06415 0.0585,-1.59577 0.009,-0.69927 0.023,-1.39714 0.0487,-2.09598 0.0265,-0.67132 0.0621,-1.34331 0.08,-2.01497 0.016,-0.45551 0.0186,-0.91112 0.0156,-1.36694 v -1.18064 -0.83231 -0.9599 -1.20898 -1.19481 c 0,-1.99374 0.9689,-2.98904 1.9388,-2.98904 0.21523,0 0.42921,0.0518 0.63391,0.14986 v -0.61766 z" /></clipPath><linearGradient
       inkscape:collect="always"
       xlink:href="#linearGradient287"
       id="linearGradient288"
       x1="360.03891"
       y1="480.94483"
       x2="631.93004"
       y2="480.94483"
       gradientUnits="userSpaceOnUse"
       gradientTransform="matrix(1.2080386,0,0,1.2372049,-31.50268,-192.63382)" /><linearGradient
       inkscape:collect="always"
       xlink:href="#linearGradient291"
       id="linearGradient293"
       x1="566.39921"
       y1="500.83498"
       x2="838.29034"
       y2="500.83498"
       gradientUnits="userSpaceOnUse"
       gradientTransform="matrix(1.2080386,0,0,1.2372049,-280.79389,-217.24201)" /><linearGradient
       inkscape:collect="always"
       xlink:href="#linearGradient295"
       id="linearGradient297"
       x1="548.49356"
       y1="205.43224"
       x2="616.73844"
       y2="205.43224"
       gradientUnits="userSpaceOnUse" /><linearGradient
       inkscape:collect="always"
       xlink:href="#linearGradient304"
       id="linearGradient305"
       x1="498.58885"
       y1="621.24883"
       x2="529.4547"
       y2="621.24883"
       gradientUnits="userSpaceOnUse"
       gradientTransform="matrix(1.1963682,0,0,1.1205874,-191.87179,-38.681926)" /><linearGradient
       inkscape:collect="always"
       xlink:href="#linearGradient304"
       id="linearGradient313"
       gradientUnits="userSpaceOnUse"
       gradientTransform="matrix(1.2406705,0,0,0.88247506,-472.12814,-1279.3174)"
       x1="498.58885"
       y1="621.24883"
       x2="529.4547"
       y2="621.24883" /></defs><g
     id="g313"><path
       sodipodi:type="star"
       style="fill:url(#linearGradient297);fill-rule:evenodd;stroke:#b9b5ac;stroke-width:3.40157;stroke-linejoin:bevel;stroke-dasharray:none;stroke-opacity:1"
       id="path295"
       inkscape:flatsided="true"
       sodipodi:sides="3"
       sodipodi:cx="572.46338"
       sodipodi:cy="205.11717"
       sodipodi:r1="43.407471"
       sodipodi:r2="21.703733"
       sodipodi:arg1="2.0792857"
       sodipodi:arg2="3.1264832"
       inkscape:rounded="0"
       inkscape:randomized="0"
       d="m 551.33009,243.03277 -1.13594,-75.17536 65.67174,36.60393 z"
       inkscape:transform-center-x="-1.0776237"
       inkscape:transform-center-y="11.917509"
       transform="matrix(0.60994344,-0.5345613,0.28312505,0.96621432,31.537343,286.59454)" /><ellipse
       style="fill:url(#linearGradient305);fill-opacity:1;fill-rule:evenodd;stroke:#b9b5ac;stroke-width:1.51945;stroke-linejoin:bevel;stroke-dasharray:none;stroke-opacity:1"
       id="path299"
       cx="423.08752"
       cy="657.48169"
       rx="17.678467"
       ry="8.9479513" /><ellipse
       style="fill:url(#linearGradient313);fill-opacity:1;fill-rule:evenodd;stroke:#b9b5ac;stroke-width:1.37312;stroke-linejoin:bevel;stroke-dasharray:none;stroke-opacity:1"
       id="path299-2"
       cx="165.60349"
       cy="-731.08081"
       rx="18.333117"
       ry="7.0466113"
       transform="rotate(90)" /><path
       id="rect585"
       style="fill:url(#linearGradient288);fill-rule:evenodd;stroke:url(#linearGradient293);stroke-width:4.15854;stroke-linejoin:bevel;stroke-dasharray:none"
       d="m 729.01454,148.48317 0.8247,34.04896 -290.66246,-0.51508 0.22323,39.30036 -0.2285,110.21426 0.0662,64.09142 0.26923,260.62785 -32.87943,0.0529 -1.13458,-479.18739 c -0.037,-15.594 12.28349,-28.26238 27.50992,-28.28683 z"
       sodipodi:nodetypes="ccccccccccc" /></g></svg>
