<svg xmlns="http://www.w3.org/2000/svg" xmlns:xlink="http://www.w3.org/1999/xlink" width="600" height="300"><defs><linearGradient id="a"><stop offset=".053" stop-color="#b3b3b3"/><stop offset=".25" stop-color="#d2d2d2"/><stop offset=".5" stop-color="#9c9c9c"/><stop offset=".75" stop-color="#afafaf"/><stop offset=".95" stop-color="#d0d0d0"/></linearGradient><linearGradient id="b"><stop offset=".05" stop-color="#b3b3b3"/><stop offset=".25" stop-color="#d2d2d2"/><stop offset=".5" stop-color="#9c9c9c"/><stop offset=".75" stop-color="#afafaf"/><stop offset=".95" stop-color="#d0d0d0"/></linearGradient><linearGradient id="k" x1="21" x2="383" y1="121.75" y2="121.75" gradientUnits="userSpaceOnUse"><stop offset=".1" stop-color="#b3b3b3"/><stop offset=".25" stop-color="#d2d2d2"/><stop offset=".4" stop-color="#9c9c9c"/><stop offset=".6" stop-color="#afafaf"/><stop offset=".75" stop-color="#d0d0d0"/><stop offset=".95" stop-color="#989898"/></linearGradient><linearGradient xlink:href="#a" id="f" x1="47.5" x2="67.5" y1="115.59" y2="115.59" gradientTransform="translate(190.38 -29.624) scale(2.2472)" gradientUnits="userSpaceOnUse"/><linearGradient xlink:href="#b" id="i" x1="45" x2="70" y1="125.56" y2="125.56" gradientTransform="translate(190.38 -29.624) scale(2.2472)" gradientUnits="userSpaceOnUse"/><linearGradient xlink:href="#b" id="e" x1="45" x2="70" y1="125.56" y2="125.56" gradientTransform="translate(-39.124 -29.624) scale(2.2472)" gradientUnits="userSpaceOnUse"/><linearGradient xlink:href="#a" id="d" x1="47.5" x2="67.5" y1="115.59" y2="115.59" gradientTransform="translate(-39.124 -29.624) scale(2.2472)" gradientUnits="userSpaceOnUse"/><linearGradient xlink:href="#c" id="g" x1="-577.1" x2="-546.05" y1="-105.96" y2="-105.96" gradientTransform="matrix(1.44696 0 0 .74063 499.961 63.23)" gradientUnits="userSpaceOnUse"/><linearGradient id="c" x1="-577.1" x2="-546.05" y1="-105.96" y2="-105.96" gradientUnits="userSpaceOnUse"><stop offset=".05" stop-color="#989898"/><stop offset=".22" stop-color="#d0d0d0"/><stop offset=".38" stop-color="#afafaf"/><stop offset=".59" stop-color="#9c9c9c"/><stop offset=".75" stop-color="#d2d2d2"/><stop offset=".92" stop-color="#b3b3b3"/></linearGradient><linearGradient xlink:href="#c" id="h" x1="-577.1" x2="-546.05" y1="-105.96" y2="-105.96" gradientTransform="matrix(1.56756 0 0 .80235 945.985 -299.025)" gradientUnits="userSpaceOnUse"/><linearGradient xlink:href="#c" id="j" x1="-577.1" x2="-546.05" y1="-105.96" y2="-105.96" gradientUnits="userSpaceOnUse"/></defs><g style="display:inline" transform="translate(84.297 14.558) scale(1.0023)"><path fill="url(#d)" d="M67.618 224.5h44.944v11.236H67.618z" style="fill:url(#d)"/><path fill="url(#e)" d="M62 234.7h56.18v35.674H62z" style="fill:url(#e)"/><path fill="url(#f)" d="M297.12 224.5h44.944v11.236H297.12z" style="fill:url(#f)"/><path fill="url(#g)" d="M-335.078-18.122h44.92v5.748h-44.92z" style="fill:url(#g);paint-order:markers stroke fill" transform="scale(-1)"/><path fill="url(#h)" d="M41.352-387.162h48.664v6.227H41.352z" style="fill:url(#h);paint-order:markers stroke fill" transform="matrix(0 .92306 -.92306 0 29.787 20.801)"/><path fill="url(#i)" d="M291.5 234.7h56.18v35.674H291.5z" style="fill:url(#j)"/><path fill="url(#k)" d="M21 17h362v209.5H21z" style="fill:url(#k);paint-order:fill markers stroke"/><path fill="#fbe631" d="M35.5 29h331.99v187.5H35.5z" style="paint-order:fill markers stroke"/><rect width="283.89" height="115.12" x="58.765" y="59.765" fill="#8e9b81" stroke="#000" stroke-width="4.531" ry="0"/><g fill="#fff" stroke="#000" stroke-width="1.124"><rect width="38.202" height="22.472" x="178.56" y="-195.53" ry="10.868" transform="rotate(180 155.48 5.683)"/><rect width="38.202" height="22.472" x="-223.9" y="-206.9" ry="10.868" transform="scale(-1)"/><rect width="38.202" height="22.472" x="178.56" y="-195.53" ry="10.868" transform="rotate(180 245.98 5.683)"/></g><text xml:space="preserve" x="305.308" y="53" fill="#fbe631" stroke-width="2.51" font-size="21.333" style="paint-order:fill markers stroke"><tspan x="203.788" y="53" fill="#1a1a1a" text-anchor="middle">Pressure Controller</tspan></text></g></svg>