<svg xmlns="http://www.w3.org/2000/svg" xmlns:xlink="http://www.w3.org/1999/xlink" width="300" height="167.95"><defs><linearGradient id="b"><stop offset=".077" stop-color="#b3b3b3"/><stop offset=".249" stop-color="#d2d2d2"/><stop offset=".41" stop-color="#9c9c9c"/><stop offset=".618" stop-color="#afafaf"/><stop offset=".779" stop-color="#d0d0d0"/><stop offset=".955" stop-color="#989898"/></linearGradient><linearGradient id="a"><stop offset="0" stop-color="#4a4a4a"/><stop offset=".201" stop-color="#5b5b5b"/><stop offset=".4" stop-color="#8a8a8a"/><stop offset=".6" stop-color="#424242"/><stop offset=".802" stop-color="#6b6b6b"/><stop offset="1" stop-color="#4a4a4a"/></linearGradient><linearGradient xlink:href="#a" id="d" x1="58.135" x2="77.913" y1="65.447" y2="65.566" gradientTransform="matrix(5.54 0 0 5.0307 -1082.1 -273.69)" gradientUnits="userSpaceOnUse"/><linearGradient xlink:href="#b" id="g" x1="134.83" x2="171.71" y1="185.43" y2="185.43" gradientTransform="matrix(-.01277 .92162 -.85242 .02159 -460.53 -221.46)" gradientUnits="userSpaceOnUse"/><linearGradient id="c" x1="-577.1" x2="-546.05" y1="-105.96" y2="-105.96" gradientUnits="userSpaceOnUse"><stop offset=".05" stop-color="#989898"/><stop offset=".22" stop-color="#d0d0d0"/><stop offset=".38" stop-color="#afafaf"/><stop offset=".59" stop-color="#9c9c9c"/><stop offset=".75" stop-color="#d2d2d2"/><stop offset=".92" stop-color="#b3b3b3"/></linearGradient><linearGradient id="h" x1="32.603" x2="77.553" y1="49.265" y2="49.025" gradientTransform="matrix(5.54 0 0 5.0307 -797.85 -260.42)" gradientUnits="userSpaceOnUse"><stop offset="0" stop-color="#424242"/><stop offset=".2" stop-color="#828282"/><stop offset=".4" stop-color="#929292"/><stop offset=".6" stop-color="#a5a5a5"/><stop offset=".796" stop-color="#878787"/><stop offset="1" stop-color="#2d2d2d"/></linearGradient><linearGradient xlink:href="#a" id="i" x1="58.135" x2="77.913" y1="65.447" y2="65.566" gradientTransform="matrix(5.54 0 0 5.0307 -797.85 -260.42)" gradientUnits="userSpaceOnUse"/><linearGradient id="j" x1="6.356" x2="18.098" y1="24.031" y2="24.152" gradientUnits="userSpaceOnUse"><stop offset="0" stop-color="#2f2f2f"/><stop offset=".249" stop-color="#474747"/><stop offset=".5" stop-color="#787878"/><stop offset=".75" stop-color="#4f4f4f"/><stop offset="1" stop-color="#3d3d3d"/></linearGradient><linearGradient xlink:href="#b" id="f" x1="-762.93" x2="-762.93" y1="-43.439" y2="65.526" gradientTransform="translate(-.365 -.05)" gradientUnits="userSpaceOnUse"/><linearGradient xlink:href="#c" id="e" x1="-577.1" x2="-546.05" y1="-105.96" y2="-105.96" gradientTransform="translate(142.56)" gradientUnits="userSpaceOnUse"/></defs><g transform="translate(565.21 79.401) scale(.72289)"><g stroke-linecap="square"><rect width="114.88" height="36.18" x="-590" y="77.864" fill="gray" ry="2.246" style="paint-order:markers stroke fill"/><rect width="192.58" height="97.687" x="-779.25" y="-36.104" fill="#666" rx="0" ry="15.029" style="paint-order:markers stroke fill"/><path fill="url(#d)" stroke="#000" stroke-width=".823" d="M-758.41-40.928a2.24 2.24 0 0 0-2.245 2.245v9.379c0 1.244 1 2.245 2.245 2.245h105.08c1.244 0 2.247-1.001 2.247-2.245v-9.379a2.24 2.24 0 0 0-2.247-2.245zm0 15.075a2.24 2.24 0 0 0-2.245 2.245v9.379c0 1.244 1 2.245 2.245 2.245h105.08c1.244 0 2.247-1.001 2.247-2.245v-9.379a2.24 2.24 0 0 0-2.247-2.245zm0 15.075a2.24 2.24 0 0 0-2.245 2.245V.846c0 1.244 1 2.245 2.245 2.245h105.08c1.244 0 2.247-1.001 2.247-2.245v-9.379a2.24 2.24 0 0 0-2.247-2.245zm0 15.075a2.24 2.24 0 0 0-2.245 2.245v9.377c0 1.244 1 2.247 2.245 2.247h105.08a2.242 2.242 0 0 0 2.247-2.247V6.542a2.24 2.24 0 0 0-2.247-2.245zm0 15.074a2.24 2.24 0 0 0-2.245 2.247v9.377c0 1.244 1 2.246 2.245 2.246h105.08a2.242 2.242 0 0 0 2.247-2.246v-9.378a2.242 2.242 0 0 0-2.247-2.246zm0 15.075a2.24 2.24 0 0 0-2.245 2.247v9.377c0 1.244 1 2.246 2.245 2.246h105.08a2.242 2.242 0 0 0 2.247-2.246v-9.378a2.242 2.242 0 0 0-2.247-2.246zm0 15.075a2.24 2.24 0 0 0-2.245 2.247v9.377c0 1.244 1 2.245 2.245 2.245h105.08c1.244 0 2.247-1.001 2.247-2.245v-9.378a2.242 2.242 0 0 0-2.247-2.246z" style="paint-order:markers stroke fill"/><rect width="57.773" height="136.28" x="-660.39" y="-52.988" fill="gray" ry="13.17" style="paint-order:markers stroke fill"/></g><path fill="url(#e)" d="M-434.54-109.84h31.045v7.761h-31.045z" style="paint-order:markers stroke fill"/><rect width="36.302" height="109.63" x="-781.45" y="-43.428" fill="url(#f)" rx="2.511" ry="46.105" style="paint-order:fill markers stroke"/><path fill="url(#g)" d="M-607.67-76.402a3.488 16.865.894 0 0-2.9-16.679l.001-.104-.357.009-18.435.467-.001.104a3.488 16.865.894 0 0-.357-.095 3.488 16.865.894 0 0-3.725 16.95 3.488 16.865.894 0 0 3.258 16.775 3.488 16.865.894 0 0 .36-.115l-.002.106 18.435-.467.358-.01.001-.105a3.488 16.865.894 0 0 3.364-16.836zm-3.252-17.032-18.976.738z"/><path fill="url(#c)" d="M-577.1-109.84h31.045v7.761H-577.1z" style="paint-order:markers stroke fill"/><rect width="249.69" height="200.2" x="-618.55" y="-103.64" fill="url(#h)" ry="9.648" style="paint-order:markers stroke fill"/><g stroke-linecap="square"><rect width="274.26" height="17.487" x="-641.79" y="105" fill="#999" ry="6.633" style="paint-order:markers stroke fill"/><rect width="2.656" height="200.2" x="-478.43" y="-103.64" ry="0" style="paint-order:markers stroke fill"/><rect width="2.656" height="200.2" x="-590.66" y="-103.64" ry="0" style="paint-order:markers stroke fill"/><path fill="url(#i)" d="M-474.2-79.52a2.24 2.24 0 0 0-2.247 2.245v9.379a2.24 2.24 0 0 0 2.247 2.245h105.08c1.244 0 2.245-1.001 2.245-2.245v-9.379c0-1.244-1-2.245-2.245-2.245zm0 17.487a2.242 2.242 0 0 0-2.247 2.247v9.377a2.24 2.24 0 0 0 2.247 2.245h105.08c1.244 0 2.245-1.001 2.245-2.245v-9.378c0-1.244-1-2.246-2.245-2.246zm0 18.09a2.24 2.24 0 0 0-2.247 2.245v9.379a2.24 2.24 0 0 0 2.247 2.245h105.08c1.244 0 2.245-1.001 2.245-2.245v-9.379c0-1.244-1-2.245-2.245-2.245zm0 17.487a2.24 2.24 0 0 0-2.247 2.245v9.379a2.24 2.24 0 0 0 2.247 2.245h105.08c1.244 0 2.245-1.001 2.245-2.245v-9.379c0-1.244-1-2.245-2.245-2.245zm0 16.884a2.242 2.242 0 0 0-2.247 2.247v9.377a2.242 2.242 0 0 0 2.247 2.246h105.08a2.24 2.24 0 0 0 2.245-2.246v-9.377c0-1.245-1-2.247-2.245-2.247zm0 18.09a2.242 2.242 0 0 0-2.247 2.247v9.377a2.24 2.24 0 0 0 2.247 2.245h105.08c1.244 0 2.245-1.001 2.245-2.245v-9.377c0-1.245-1-2.247-2.245-2.247zm0 19.297a2.24 2.24 0 0 0-2.247 2.245v9.377a2.242 2.242 0 0 0 2.247 2.247h105.08a2.24 2.24 0 0 0 2.245-2.247V30.06c0-1.244-1-2.245-2.245-2.245zm0 17.487a2.24 2.24 0 0 0-2.247 2.245v9.377a2.242 2.242 0 0 0 2.247 2.247h105.08a2.24 2.24 0 0 0 2.245-2.247v-9.377c0-1.244-1-2.245-2.245-2.245zm0 17.487a2.24 2.24 0 0 0-2.247 2.245v9.379a2.24 2.24 0 0 0 2.247 2.245h105.08c1.244 0 2.245-1.001 2.245-2.245v-9.379c0-1.244-1-2.245-2.245-2.245z" style="paint-order:markers stroke fill"/><path fill="url(#j)" stroke="#000" stroke-width="1.332" d="m15.103 29.487-6.066-.042-2.996-5.274 3.069-5.232 6.066.042 2.996 5.274z" style="paint-order:markers stroke fill" transform="matrix(1.409 0 0 1.2279 -416.8 56.274)"/></g></g></svg>