<svg xmlns="http://www.w3.org/2000/svg" xmlns:xlink="http://www.w3.org/1999/xlink" xml:space="preserve" width="600mm" height="210mm" viewBox="0 0 600 210"><defs><linearGradient id="d" x1="227.39" x2="234.53" y1="101.92" y2="101.92" gradientTransform="translate(28.523)" gradientUnits="userSpaceOnUse" spreadMethod="repeat"><stop offset="0" stop-color="#878787"/><stop offset=".5" stop-color="#fff"/><stop offset="1" stop-color="#afafaf"/></linearGradient><linearGradient id="a"><stop offset=".077" stop-color="#b3b3b3"/><stop offset=".249" stop-color="#d2d2d2"/><stop offset=".41" stop-color="#9c9c9c"/><stop offset=".618" stop-color="#afafaf"/><stop offset=".779" stop-color="#d0d0d0"/><stop offset=".955" stop-color="#989898"/></linearGradient><linearGradient xlink:href="#a" id="g" x1="134.83" x2="171.71" y1="185.43" y2="185.43" gradientTransform="matrix(.00141 -1.2316 .09427 -.02885 -639.36 123.06)" gradientUnits="userSpaceOnUse"/><linearGradient id="b" x1="6.356" x2="18.098" y1="24.031" y2="24.152" gradientUnits="userSpaceOnUse"><stop offset="0" stop-color="#2f2f2f"/><stop offset=".249" stop-color="#474747"/><stop offset=".5" stop-color="#787878"/><stop offset=".75" stop-color="#4f4f4f"/><stop offset="1" stop-color="#3d3d3d"/></linearGradient><linearGradient id="f" x1="824.85" x2="922.59" y1="-30.296" y2="-30.296" gradientTransform="matrix(5.54 0 0 5.0307 -797.85 -260.42)" gradientUnits="userSpaceOnUse"><stop offset="0" stop-color="#424242"/><stop offset=".2" stop-color="#828282"/><stop offset=".4" stop-color="#929292"/><stop offset=".6" stop-color="#a5a5a5"/><stop offset=".796" stop-color="#878787"/><stop offset="1" stop-color="#2d2d2d"/></linearGradient><linearGradient id="e" x1="-577.1" x2="-546.05" y1="-105.96" y2="-105.96" gradientTransform="matrix(1.8502 0 0 1.305 1037.7 -620.68)" gradientUnits="userSpaceOnUse"><stop offset=".05" stop-color="#989898"/><stop offset=".22" stop-color="#d0d0d0"/><stop offset=".38" stop-color="#afafaf"/><stop offset=".59" stop-color="#9c9c9c"/><stop offset=".75" stop-color="#d2d2d2"/><stop offset=".92" stop-color="#b3b3b3"/></linearGradient><linearGradient xlink:href="#b" id="i" x1="526.07" x2="563.13" y1="-118.26" y2="-118.26" gradientTransform="matrix(.98089 0 0 1 10.761 0)" gradientUnits="userSpaceOnUse"/><linearGradient xlink:href="#b" id="j" x1="6.356" x2="18.098" y1="24.031" y2="24.152" gradientTransform="matrix(-.50405 0 0 -1.6409 -539.11 155.94)" gradientUnits="userSpaceOnUse"/><linearGradient xlink:href="#a" id="h" x1="134.83" x2="171.71" y1="185.43" y2="185.43" gradientTransform="matrix(.00141 -1.2316 .09427 -.02885 -639.36 255.77)" gradientUnits="userSpaceOnUse"/><linearGradient id="k" x1="32.603" x2="77.553" y1="49.265" y2="49.025" gradientTransform="matrix(5.54 0 0 5.0307 -797.85 -260.42)" gradientUnits="userSpaceOnUse"><stop offset="0" stop-color="#4a4a4a"/><stop offset=".201" stop-color="#5b5b5b"/><stop offset=".4" stop-color="#8a8a8a"/><stop offset=".6" stop-color="#424242"/><stop offset=".802" stop-color="#6b6b6b"/><stop offset="1" stop-color="#4a4a4a"/></linearGradient><linearGradient id="m" x1="80.513" x2="80.514" y1="110.91" y2="112.39" gradientTransform="matrix(3.3628 0 0 4.8058 -264.41 -480.93)" gradientUnits="userSpaceOnUse" spreadMethod="repeat"><stop offset=".205" stop-color="#848484"/><stop offset=".622" stop-color="#474747"/></linearGradient><linearGradient id="p" x1="824.85" x2="922.59" y1="-30.296" y2="-30.296" gradientTransform="translate(278.25 -247.05) scale(.39601)" gradientUnits="userSpaceOnUse"><stop offset=".05" stop-color="#989898"/><stop offset=".22" stop-color="#d0d0d0"/><stop offset=".38" stop-color="#afafaf"/><stop offset=".59" stop-color="#9c9c9c"/><stop offset=".75" stop-color="#d2d2d2"/><stop offset=".92" stop-color="#b3b3b3"/></linearGradient><linearGradient id="c" x1="-577.1" x2="-546.05" y1="-105.96" y2="-105.96" gradientTransform="matrix(3.0156 0 0 2.0432 1665.9 -602.03)" gradientUnits="userSpaceOnUse"><stop offset=".05" stop-color="#989898"/><stop offset=".22" stop-color="#d0d0d0"/><stop offset=".38" stop-color="#afafaf"/><stop offset=".59" stop-color="#9c9c9c"/><stop offset=".75" stop-color="#d2d2d2"/><stop offset=".92" stop-color="#b3b3b3"/></linearGradient><linearGradient xlink:href="#c" id="o" x1="-577.1" x2="-546.05" y1="-105.96" y2="-105.96" gradientTransform="matrix(3.0156 0 0 2.0432 1665.9 -712.54)" gradientUnits="userSpaceOnUse"/><linearGradient id="q" x1="875.19" x2="876.11" y1="-9.795" y2="344.74" gradientUnits="userSpaceOnUse" spreadMethod="reflect"><stop offset="0" stop-color="#8e1010"/><stop offset=".961" stop-color="#c80808"/></linearGradient><linearGradient xlink:href="#d" id="r" x1="227.39" x2="234.53" y1="101.92" y2="101.92" gradientTransform="translate(-136.04)" gradientUnits="userSpaceOnUse" spreadMethod="repeat"/><linearGradient id="n" x1="458.59" x2="458.59" y1="-22.838" y2="70.028" gradientTransform="matrix(-5.1677 0 0 -11.687 2024.5 677.29)" gradientUnits="userSpaceOnUse" spreadMethod="repeat"><stop offset=".141" stop-color="#b3b3b3"/><stop offset=".254" stop-color="#d2d2d2"/><stop offset=".511" stop-color="#9c9c9c"/><stop offset=".793" stop-color="#404040"/><stop offset=".844" stop-color="#d0d0d0"/><stop offset=".879" stop-color="#989898"/></linearGradient><linearGradient id="l" x1="533.48" x2="536.61" y1="55.596" y2="55.596" gradientTransform="matrix(-5.1594 0 0 -11.687 2019.1 675.69)" gradientUnits="userSpaceOnUse"><stop offset=".141" stop-color="#b3b3b3"/><stop offset=".254" stop-color="#d2d2d2"/><stop offset=".511" stop-color="#9c9c9c"/><stop offset=".679" stop-color="#afafaf"/><stop offset=".777" stop-color="#d0d0d0"/><stop offset=".879" stop-color="#989898"/></linearGradient></defs><g stroke-linecap="square"><path fill="gray" d="M-718.39-25.744h110.17v53.797h-110.17z" style="paint-order:markers stroke fill" transform="matrix(-.30345 0 0 -.21404 341.711 140.65)"/><path fill="url(#e)" d="M-30.028-764.03h57.439v10.129h-57.439z" style="paint-order:markers stroke fill" transform="matrix(0 .21404 -.30345 0 341.711 140.65)"/><g stroke-width="2.916"><path fill="url(#f)" d="M824.85-94.632h97.741v128.67H824.85z" style="paint-order:fill markers stroke" transform="matrix(.19382 0 0 .19099 391.68 146.378)"/><g fill="#1a1a1a"><path d="M824.83-82.59h97.754v1.776H824.83zM824.83-71.042h97.754v1.776H824.83zM824.83-59.495h97.754v1.776H824.83zM824.83-47.947h97.754v1.776H824.83zM824.83-37.224h97.754v1.776H824.83zM824.83-25.677h97.754v1.776H824.83zM824.83-14.129h97.754v1.776H824.83zM824.83-2.582h97.754v1.776H824.83zM824.83 9.131h97.754v1.776H824.83zM824.83 20.679h97.754v1.776H824.83z" style="paint-order:fill markers stroke" transform="matrix(.19382 0 0 .19099 391.68 146.378)"/></g></g></g><g transform="matrix(-.59831 0 0 -.16016 159.32 140.042)"><path fill="url(#g)" d="M-623.08-70.794a.386 22.535.07 0 0 .32 22.289v.139l.04-.012 2.039-.624v-.139a.386 22.535.07 0 0 .04.127.386 22.535.07 0 0 .411-22.653.386 22.535.07 0 0-.36-22.416.386 22.535.07 0 0-.04.154v-.142l-2.038.624-.04.012v.142a.386 22.535.07 0 0-.372 22.499zm.36 22.761 2.098-.986z"/><path fill="url(#h)" d="M-623.08 61.92a.386 22.535.07 0 0 .32 22.289v.139l.04-.012 2.039-.624v-.139a.386 22.535.07 0 0 .04.127.386 22.535.07 0 0 .411-22.653.386 22.535.07 0 0-.36-22.416.386 22.535.07 0 0-.04.154v-.142l-2.038.624-.04.012v.142a.386 22.535.07 0 0-.372 22.499zm.36 22.761 2.098-.986z"/><path fill="#1a1a1a" d="M618.43-68.591h4.076v136.93h-4.076z" style="paint-order:fill markers stroke" transform="matrix(-.50717 0 0 -1.3364 -304.84 -3.798)"/><path fill="url(#i)" d="M526.78-141.19h36.353v45.855H526.78z" style="paint-order:fill markers stroke" transform="scale(-1)"/><path fill="url(#j)" stroke="#000" stroke-width="1.212" d="m-546.72 107.56 3.057.069 1.51 8.654-1.546 8.586-3.058-.069-1.51-8.654z" style="paint-order:markers stroke fill"/><rect width="249.69" height="200.2" x="-618.55" y="-103.64" fill="url(#k)" ry="5.59" style="paint-order:markers stroke fill"/></g><g transform="matrix(-.19382 0 0 -.08557 391.35 57.778)"><path fill="url(#l)" d="M-749.8 83.06c10.654.094 16.951-25.952 16.453-53.964-.52-29.276-5.821-56.224-15.64-56.343-6.226-.075-8.287 110.24-.814 110.31zm.326-110.62c.262-.387.76-.708 1.242-1.015l.254.196z" style="paint-order:fill markers stroke"/><rect width="544.71" height="6.434" x="-261.71" y="52.189" fill="url(#m)" rx="6.73" ry="2.002" style="paint-order:fill markers stroke" transform="matrix(-5.1595 -.01175 .00254 -11.687 565.76 675.24)"/><path fill="url(#n)" d="M-13.756 87.322h-717.75c-40.595 0-1.186-12.798-1.992-58.153-.88-49.517-38.603-59.839 1.992-59.839h717.75c74.047 0 86.937-3.258 87.55 58.996.64 64.916-13.503 58.996-87.55 58.996z" style="paint-order:fill markers stroke"/><path fill="url(#o)" d="M-74.415-936.96h93.618v15.858h-93.618z" style="paint-order:markers stroke fill" transform="rotate(-90 0 0)"/><path fill="url(#c)" d="M-74.415-826.46h93.618v15.858h-93.618z" style="paint-order:markers stroke fill" transform="rotate(-90)"/><path fill="url(#p)" d="M824.85-94.632h97.741v128.67H824.85z" style="paint-order:fill markers stroke" transform="scale(-1)"/><g fill="#1a1a1a" stroke-width="2.916"><path d="M824.83-82.59h97.754v1.776H824.83zM824.83-71.042h97.754v1.776H824.83zM824.83-59.495h97.754v1.776H824.83zM824.83-47.947h97.754v1.776H824.83zM824.83-37.224h97.754v1.776H824.83zM824.83-25.677h97.754v1.776H824.83zM824.83-14.129h97.754v1.776H824.83zM824.83-2.582h97.754v1.776H824.83zM824.83 9.131h97.754v1.776H824.83zM824.83 20.679h97.754v1.776H824.83z" style="paint-order:fill markers stroke" transform="scale(-1)"/></g><rect width="79.197" height="1305.8" x="833.75" y="-145.41" fill="url(#q)" rx="32.171" ry="23.403" style="paint-order:fill markers stroke" transform="scale(-1)"/></g><path fill="url(#d)" d="M255.91 39.981h7.139v123.87h-7.139z" style="paint-order:fill markers stroke" transform="translate(281.7)"/><path fill="url(#r)" d="M91.343 39.981h7.139v123.87h-7.139z" style="paint-order:fill markers stroke" transform="translate(281.7)"/></svg>