<svg xmlns="http://www.w3.org/2000/svg" xmlns:xlink="http://www.w3.org/1999/xlink" xml:space="preserve" width="973.55mm" height="548.5mm" viewBox="0 0 973.55 548.5"><defs><linearGradient id="a"><stop offset=".492" stop-color="#c2c2c2"/><stop offset=".529" stop-color="#7b7b7b"/></linearGradient><linearGradient id="l" x1="9.946" x2="163.29" y1="122.25" y2="122.25" gradientTransform="translate(52.503 -24.989)" gradientUnits="userSpaceOnUse" spreadMethod="reflect"><stop offset="0" stop-color="#dbe1e3" stop-opacity=".699"/><stop offset=".422" stop-color="#b0b8ba" stop-opacity=".7"/><stop offset="1" stop-color="#c0cbcd" stop-opacity=".7"/></linearGradient><linearGradient id="c" x1="81.791" x2="81.791" y1="30.61" y2="192.59" gradientTransform="translate(40.904 -35.03) scale(1.0771)" gradientUnits="userSpaceOnUse"><stop offset=".495" stop-color="#c2c2c2"/><stop offset=".529" stop-color="#7b7b7b"/></linearGradient><linearGradient id="b" x1="78.801" x2="104.86" y1="182.29" y2="182.29" gradientTransform="translate(32.155 -24.275)" gradientUnits="userSpaceOnUse" spreadMethod="reflect"><stop offset="0"/><stop offset=".5" stop-color="#484848"/><stop offset="1" stop-color="#919191"/></linearGradient><linearGradient id="j" x1="182.26" x2="182.26" y1="99.342" y2="134.94" gradientTransform="translate(64.997 -26.251)" gradientUnits="userSpaceOnUse" spreadMethod="reflect"><stop offset="0" stop-color="#5f5f5f"/><stop offset=".5" stop-color="#484848"/><stop offset="1" stop-color="#919191"/></linearGradient><linearGradient id="k" x1="200.23" x2="200.17" y1="108.34" y2="125.81" gradientTransform="translate(64.997 -26.251)" gradientUnits="userSpaceOnUse" spreadMethod="reflect"><stop offset="0" stop-color="#bebebe"/><stop offset=".5" stop-color="#dedede"/><stop offset="1" stop-color="#9c9c9c"/></linearGradient><linearGradient xlink:href="#a" id="f" x1="214.15" x2="214.15" y1="66.806" y2="93.102" gradientTransform="translate(-26.159 -9.74) scale(1.1273)" gradientUnits="userSpaceOnUse"/><linearGradient xlink:href="#a" id="g" x1="214.15" x2="214.15" y1="66.806" y2="93.102" gradientTransform="translate(-26.565 -22.809) scale(1.1273)" gradientUnits="userSpaceOnUse"/><linearGradient xlink:href="#a" id="i" x1="214.15" x2="214.15" y1="66.806" y2="93.102" gradientTransform="translate(-25.862 2.526) scale(1.1273)" gradientUnits="userSpaceOnUse"/><linearGradient xlink:href="#a" id="h" x1="214.15" x2="214.15" y1="66.806" y2="93.102" gradientTransform="translate(-25.497 13.899) scale(1.1273)" gradientUnits="userSpaceOnUse"/><clipPath id="d"><path fill="red" d="M105.3 101.3H51.732v9.28l.01.002c.026.005.049.01.07.018.022-.007.047-.022.067-.023.072-.003.128.03.153.08l.347.01.142.005c.17.005.205.137.113.196h.064c.136-.29.506-.528 1.111-.528h1.68c1.288 0 1.514 1.073.677 1.45l.009-.001c.22-.011.231.211.011.223a1.64 1.64 0 0 1-.222 0 12.885 12.885 0 0 1-.367-.028c-.011.02-.03.036-.071.008-.007-.003-.013-.012-.022-.016a2.408 2.408 0 0 0-.291-.018.177.177 0 0 1-.125-.04h-1.279c-.806 0-1.195-.42-1.17-.827l-.26.002a.333.333 0 0 1-.023.054c-.017.02-.032.041-.052.059-.077.068-.19.067-.285.061-.096-.008-.191-.018-.287-.021v15.297H105.3v-14.056h-.917c-1.562 0-1.562-1.578 0-1.578h.917zm-38.865 9.359c1.562-.02 1.582 1.557.02 1.577h-.06c-.155.003-.31.007-.465.014-.224.01-.447.018-.67.036-1.556.128-1.729-1.425-.174-1.568.258-.023.517-.033.776-.044.17-.008.339-.012.508-.015zm10.508.188c.043 0 .085.002.128.006.41.036.484.35.264.49 0 .02.006.04 0 .06.221.065.288.233.22.364.17.175.038.46-.362.43l-.423-.035c-.2-.018-.4-.036-.6-.036-.277 0-.415-.14-.413-.28-.274-.14-.194-.499.252-.501h.052c-.002-.005 0-.01 0-.016-.169-.157-.065-.44.325-.455l.071-.003c.091-.004.182-.01.273-.016.07-.004.142-.008.213-.008zm10.088.052a.8.8 0 0 1 .05.002c.289.02.579.02.868.02.219.001.347.09.392.195.274.111.242.433-.106.505a.215.215 0 0 1 0 .241c.19.162.08.463-.327.457a68.467 68.467 0 0 1-.453-.007c-.264-.006-.528-.008-.79-.03-.404-.035-.478-.34-.273-.483a.213.213 0 0 1 .043-.193c-.13-.133-.078-.346.214-.422-.012-.142.117-.287.382-.285zm12.311.214c.502.014.506.538-.029.558a4.52 4.52 0 0 1-.116.004c.341.053.395.35.168.483.139.17.011.431-.37.417-.29-.01-.146-.004-.432-.02-.277-.017-.554-.038-.831-.049-.27-.011-.399-.15-.396-.285-.353-.08-.344-.453.03-.528-.477-.049-.458-.55.068-.55l.773-.001a36.7 36.7 0 0 0 1.135-.029zm-47.239.053c.027.032.02.012.018.002l-.018-.002z"/></clipPath><clipPath id="e"><path fill="red" d="M105.12 101.3v25.241h53.154v-13.312c-.13.004-.261.005-.39-.01-.299-.037-.412-.214-.364-.359-.137-.163-.024-.421.352-.424l.402.003V101.3zm3.42 9.933h.023c.016 0 .033 0 .05.002.169.012.337.02.505.03.285.016.411.172.394.315.252.059.325.26.222.399.123.114.096.292-.073.387.027.151-.11.316-.41.316h-.817c-.36 0-.485-.237-.375-.402a.219.219 0 0 1 .006-.21c-.469-.066-.472-.54.01-.548h.05c.02 0 .039.002.058.003-.017-.14.103-.286.356-.292zm11.057.041.183.001c.123 0 .214.031.282.074h.852c1.561 0 1.561 1.578 0 1.578h-1.693c-1.539 0-1.56-1.532-.066-1.577a.532.532 0 0 1 .26-.073c.06-.002.121-.003.182-.003zm11.135.138c.364-.008.488.23.376.397.438.057.416.537-.096.553-.013 0-.028 0-.041.002.157.165.04.44-.349.437-.363-.002-.18-.001-.547-.006-.355-.007-.71-.019-1.064-.023-.294-.004-.432-.163-.413-.31-.352-.082-.354-.486.115-.538.12-.013.242-.024.363-.033-.153-.155-.07-.412.303-.436.37-.025.74-.028 1.111-.037l.242-.006zm8.775.064c.226 0 .452.022.678.037.102.003.205.012.307.023l.207.004c.314.004.157.003.471.003.322 0 .45.188.397.346a.248.248 0 0 1 .135.163c.354.516-.075 1.226-1.148 1.082l-.077-.01a3.333 3.333 0 0 0-.4-.037c-.19-.013-.38-.031-.57-.034-1.561-.022-1.562-1.586 0-1.578zm11.306.09a22.564 22.564 0 0 0 .8.03l.207.003c.333.006.458.21.387.37l.044-.003a.79.79 0 0 1 .05 0c.423.008.491.376.185.509.262.136.185.49-.252.505l-.56.02c-.232.005-.465.007-.697.017-.471.02-.54-.382-.208-.516-.122-.106-.11-.281.047-.385-.483-.063-.487-.546-.003-.55z"/></clipPath></defs><g transform="rotate(-.847 -15987.284 12720.816) scale(4.4618)"><path fill="url(#b)" d="M114.12 138.24c-1.75 0-3.16.892-3.16 2v.284c0 .828.787 1.535 1.916 1.84-.01.616-.53 32.244-.11 33.091 1.13 2.279 7.743 2.409 11.314 2.32 3.57-.09 9.462.064 11.098-2.395.244-.527-.11-32.218-.119-33.006 1.153-.297 1.96-1.012 1.96-1.85v-.284c0-1.108-1.408-2-3.159-2z" style="fill:url(#b);paint-order:fill markers stroke"/><path fill="none" stroke="#000" stroke-width=".664" d="M104.32 86.109s.343-9.765 1.733-9.719c3.1.104.95 24.566 4.373 24.363 5.773-.342 2.882-24.05 5.979-24.096 3.334-.05 1.308 24.27 4.73 24.274 3.474.006 3.938-24.1 6.113-24.229 2.676-.16 1.607 24.811 4.774 24.765 3.54-.052 3.152-24.433 5.355-24.363 3.443.11 2.3 24.274 5.176 24.274 4.94 0 2.381-24.548 5.8-24.453 3.457.097 1.896 24.453 4.374 24.453 4.162 0 4.997-16.33 4.997-16.33" style="paint-order:fill markers stroke"/><path fill="none" stroke="#000" stroke-width=".664" d="M157.7 85.226s.217-8.881 1.606-8.835c3.101.104.95 24.566 4.373 24.363 5.774-.342 2.883-24.05 5.98-24.096 3.334-.05 1.308 24.269 4.73 24.274 3.474.006 3.938-24.1 6.113-24.229 2.676-.16 1.606 24.811 4.774 24.765 3.54-.052 3.151-24.433 5.355-24.363 3.443.11 2.3 24.274 5.176 24.274 4.94 0 2.38-24.548 5.8-24.453 3.457.097 1.896 24.453 4.373 24.453 4.163 0 4.71-13.732 4.71-13.732" style="paint-order:fill markers stroke"/><rect width="174.47" height="1.442" x="41.769" y="84.455" fill="url(#c)" rx="2.155" ry=".449" style="fill:url(#c);paint-order:fill markers stroke" transform="rotate(.639)"/><path fill="none" stroke="#000" stroke-width=".664" d="M51.813 111.1s.343-9.765 1.733-9.719c3.1.104.95 24.566 4.373 24.363 5.774-.342 2.882-24.05 5.979-24.096 3.335-.05 1.308 24.27 4.73 24.274 3.474.006 3.938-24.1 6.113-24.229 2.676-.16 1.607 24.811 4.774 24.765 3.54-.052 3.152-24.433 5.355-24.363 3.443.11 2.3 24.274 5.176 24.274 4.94 0 2.381-24.548 5.8-24.453 3.457.097 1.896 24.453 4.374 24.453 4.162 0 4.997-16.33 4.997-16.33" clip-path="url(#d)" style="paint-order:fill markers stroke" transform="translate(52.503 -24.989)"/><path fill="none" stroke="#000" stroke-width=".664" d="M105.2 110.21s.217-8.881 1.606-8.835c3.101.104.95 24.566 4.373 24.363 5.774-.342 2.883-24.05 5.98-24.096 3.334-.05 1.308 24.269 4.73 24.274 3.474.006 3.938-24.1 6.113-24.229 2.676-.16 1.606 24.811 4.774 24.765 3.54-.052 3.151-24.433 5.355-24.363 3.443.11 2.3 24.274 5.176 24.274 4.94 0 2.38-24.548 5.8-24.453 3.457.097 1.896 24.453 4.373 24.453 4.163 0 4.71-13.732 4.71-13.732" clip-path="url(#e)" style="paint-order:fill markers stroke" transform="translate(52.503 -24.989)"/><g transform="translate(-7.32 1.563)"><g transform="rotate(1.387 -2.525 95.869)"><rect width="29.643" height="1.633" x="200.42" y="79.572" fill="url(#f)" rx="2.937" ry=".339" style="fill:url(#f);paint-order:fill markers stroke"/><rect width="29.643" height="1.633" x="200.01" y="66.504" fill="url(#g)" rx="2.937" ry=".339" style="fill:url(#g);paint-order:fill markers stroke"/><rect width="29.643" height="1.633" x="201.08" y="103.21" fill="url(#h)" rx="2.937" ry=".339" style="fill:url(#h);paint-order:fill markers stroke"/><rect width="29.643" height="1.633" x="200.72" y="91.839" fill="url(#i)" rx="2.937" ry=".339" style="fill:url(#i);paint-order:fill markers stroke"/></g><path fill="url(#j)" d="M238.37 63.993c-2.175.006-5.341.225-6.305.516-1.285.389-2.588 2.053-2.5 3.124-.004 1.246-.097 22.672-.099 23.133v.248l.1 23.133c-.09 1.071 1.214 2.735 2.499 3.124 1.285.388 6.485.647 8.032.446 1.728-.225 3.42-2.44 3.926-3.391.825-1.55 2.843-6.845 3.57-7.853.951-1.318 7.925-7.211 9.55-7.675 2.623-.75 6.96.535 7.585 0 .608-.522.207-7.535.185-7.908.022-.376.423-7.386-.185-7.907-.625-.536-4.962.75-7.586 0-1.624-.465-8.598-6.358-9.549-7.675-.727-1.008-2.745-6.304-3.57-7.854-.506-.952-2.198-3.166-3.926-3.391-.387-.05-1.002-.072-1.727-.07z" style="fill:url(#j);paint-order:fill markers stroke"/><rect width="2.32" height="18.206" x="264.01" y="81.911" fill="url(#k)" rx="2.501" ry="2.417" style="fill:url(#k);paint-order:fill markers stroke"/></g><path fill="url(#l)" d="M109.71 121.81c.939 1.066 1.64 5.048 2.209 10.16.501 4.516.152 6.415 1.262 6.815 1.671.604 19.815 1.64 21.455 0 1.64-1.64 2.273-6.567 2.524-9.402.25-2.835-.198-4.088 1.514-5.743 1.893-1.83 17.67-1.514 17.67-1.514l42.531.82s8.242.127 9.97-.315c2.714-.695 5.302-4.544 5.807-7.573.504-3.029 1.135-39.44 1.135-39.44s-.582-9.587-.757-10.917c-.315-2.398-1.327-5.272-2.966-6.689-1.186-1.025-5.174-.947-9.78-1.01-9.787-.134-97.06-2.118-102.73-2.145-3.518-.017-10.41 1.88-13.505 4.039-2.83 1.973-6.04 4.894-7.95 7.446-2.4 3.203-4.04 8.582-4.797 9.34-.757.756-3.596 1.08-5.553 1.64-2.209.631-3.784 1.86-4.165 2.65-.878 1.824-.82 4.291-1.01 6.5-.118 1.383-.25 3.868.127 5.111.63 2.083 1.281 4.014 2.902 5.049 2.16 1.379 5.427 1.388 6.058 1.64.631.253 2.753 5.862 3.913 7.32 1.262 1.587 6.258 8.272 8.708 9.592 3.113 1.678 14.107 5.056 16.407 5.427 3.892.628 8.085.133 9.024 1.2z" style="fill:url(#l);paint-order:fill markers stroke"/></g></svg>